<svg width="60" height="71" viewBox="0 0 60 71" fill="none" xmlns="http://www.w3.org/2000/svg">
<g clip-path="url(#clip0)">
<path d="M53.149 0H5.905V5.905H53.149V0ZM5.905 70.865H53.149V64.96H5.905V70.865ZM53.149 11.811H5.905C4.34036 11.8157 2.84115 12.4394 1.73478 13.5458C0.628404 14.6522 0.00474777 16.1514 0 17.716V53.149C0.00474777 54.7136 0.628404 56.2128 1.73478 57.3192C2.84115 58.4256 4.34036 59.0493 5.905 59.054H53.149C54.7136 59.0493 56.2128 58.4256 57.3192 57.3192C58.4256 56.2128 59.0493 54.7136 59.054 53.149V17.716C59.0493 16.1514 58.4256 14.6522 57.3192 13.5458C56.2128 12.4394 54.7136 11.8157 53.149 11.811ZM29.527 19.931C30.8411 19.931 32.1256 20.3207 33.2182 21.0507C34.3108 21.7808 35.1624 22.8184 35.6653 24.0325C36.1681 25.2465 36.2997 26.5824 36.0433 27.8712C35.787 29.16 35.1542 30.3438 34.225 31.273C33.2958 32.2022 32.112 32.835 30.8232 33.0913C29.5344 33.3477 28.1985 33.2161 26.9845 32.7133C25.7704 32.2104 24.7328 31.3588 24.0027 30.2662C23.2727 29.1736 22.883 27.8891 22.883 26.575C22.8856 24.8137 23.5865 23.1253 24.8319 21.8799C26.0773 20.6345 27.7657 19.9336 29.527 19.931ZM44.291 50.2H14.764V45.767C14.764 40.836 24.597 38.385 29.528 38.385C34.459 38.385 44.292 40.836 44.292 45.767L44.291 50.2Z" fill="#004C77"/>
</g>
<defs>
<clipPath id="clip0">
<rect width="59.054" height="70.865" fill="white"/>
</clipPath>
</defs>
</svg>
