<svg width="93" height="63" viewBox="0 0 93 63" fill="none" xmlns="http://www.w3.org/2000/svg">
<g clip-path="url(#clip0)">
<path d="M0 56.9V5.532C0 5.47267 0.0893333 4.90767 0.268 3.837L30.501 29.699L0.357 58.684C0.166599 58.1059 0.0467304 57.5069 0 56.9ZM4.013 0.268001C4.49477 0.077461 5.0101 -0.013699 5.528 1.22492e-06H86.955C87.501 0.00198611 88.043 0.0924943 88.56 0.268001L58.238 26.22L54.228 29.432L46.291 35.942L38.349 29.432L34.336 26.221L4.013 0.268001ZM4.102 62.162L34.514 32.998L46.286 42.541L58.058 32.998L88.471 62.162C87.986 62.3422 87.4724 62.433 86.955 62.43H5.528C5.04005 62.4276 4.55657 62.3368 4.101 62.162H4.102ZM62.072 29.699L92.217 3.832C92.398 4.38038 92.4885 4.95455 92.485 5.532V56.902C92.4749 57.5059 92.3848 58.1058 92.217 58.686L62.072 29.699Z" fill="#004C77"/>
</g>
<defs>
<clipPath id="clip0">
<rect width="92.485" height="62.429" fill="white"/>
</clipPath>
</defs>
</svg>
