<svg width="147" height="149" viewBox="0 0 147 149" fill="none" xmlns="http://www.w3.org/2000/svg">
<path d="M90 16.0146L94.9844 11L100 15.9844L95.0156 21L90 16.0146Z" fill="#004C77"/>
<path d="M101 5.01558L105.984 0L111 4.98442L106.016 10L101 5.01558Z" fill="#004C77"/>
<path d="M90 5.01558L94.9844 0L100 4.98442L95.0156 10L90 5.01558Z" fill="#004C77"/>
<path d="M101 16.0151L105.984 11L111 15.9849L106.016 21L101 16.0151Z" fill="#004C77"/>
<path d="M119 45.0156L123.486 40L128 44.9844L123.514 50L119 45.0156Z" fill="#004C77"/>
<path d="M130 34.0156L134.984 29L140 33.9844L135.016 39L130 34.0156Z" fill="#004C77"/>
<path d="M119 34.0156L123.984 29L129 33.9844L124.016 39L119 34.0156Z" fill="#004C77"/>
<path d="M130 45.0156L134.984 40L140 44.9844L135.016 50L130 45.0156Z" fill="#004C77"/>
<path d="M57 27L62.5 22L68 27L62.5 32L57 27Z" fill="#004C77"/>
<path d="M108 78L113.5 73L119 78L113.5 83L108 78Z" fill="#004C77"/>
<path d="M84 50.9048L111.746 24L117 29.0952L89.2543 56L84 50.9048Z" fill="#004C77"/>
<path d="M99 65.681L104.017 71C104.124 70.8943 114.839 60.5628 128.153 64.1498L130 57.0123C112.798 52.3766 99.5557 65.135 99 65.681V65.681Z" fill="#004C77"/>
<path d="M74.9685 41C75.4778 40.4622 87.3803 27.6475 83.0556 11L76.3969 12.7884C79.7182 25.5721 70.0977 36.0479 70 36.1527L74.9685 41Z" fill="#004C77"/>
<path d="M18 118.7L21.4803 122L36 116.815L35.0329 76L18 118.7Z" fill="#004C77"/>
<path d="M44.0606 34.0328L48.4926 38.402L41 57.9734L42.2756 114L56.8106 108.592L55.2408 45.0546L62.6432 52.3522L63.9667 105.93L78.2958 100.599L77.4358 66.9352L84.8447 74.2392L85.4501 97.938L102.463 91.6079L106.895 95.9771L112 90.9444L49.1657 29L44.0606 34.0328Z" fill="#004C77"/>
</svg>
