<svg width="166" height="166" viewBox="0 0 166 166" fill="none" xmlns="http://www.w3.org/2000/svg">
<path d="M142 0H24C10.7452 0 0 10.7452 0 24V142C0 155.255 10.7452 166 24 166H142C155.255 166 166 155.255 166 142V24C166 10.7452 155.255 0 142 0Z" fill="white"/>
<path d="M118.253 83.532C118.253 103.896 104.307 118.392 83.707 118.392C79.0188 118.392 74.3765 117.469 70.0452 115.675C65.7139 113.88 61.7783 111.251 58.4633 107.936C55.1482 104.621 52.5186 100.685 50.7245 96.3538C48.9304 92.0225 48.007 87.3802 48.007 82.692C48.007 78.0038 48.9304 73.3616 50.7245 69.0302C52.5186 64.6989 55.1482 60.7634 58.4633 57.4483C61.7783 54.1333 65.7139 51.5036 70.0452 49.7095C74.3765 47.9154 79.0188 46.992 83.707 46.992C92.5942 46.8894 101.175 50.2375 107.644 56.332L97.927 65.679C85.217 53.414 61.581 62.632 61.581 82.693C61.5338 88.6137 63.8366 94.3115 67.9844 98.5367C72.1322 102.762 77.7864 105.17 83.707 105.232C97.842 105.232 103.14 95.098 103.975 89.844H83.707V77.569H117.691C118.069 79.5342 118.257 81.531 118.253 83.532Z" fill="#004C77"/>
</svg>
