<svg width="151" height="151" viewBox="0 0 151 151" fill="none" xmlns="http://www.w3.org/2000/svg">
<path d="M151 75.5H122.648C123.471 76.757 124.096 77.725 124.736 78.684C126.534 81.1556 127.689 84.0358 128.097 87.065C128.411 90.3927 127.595 93.729 125.781 96.5363C123.966 99.3435 121.26 101.458 118.097 102.539C115.962 103.271 113.688 103.511 111.447 103.242C109.206 102.974 107.054 102.202 105.153 100.986C103.251 99.7699 101.648 98.1402 100.464 96.2185C99.2796 94.2967 98.5444 92.1324 98.313 89.887C97.969 86.6774 98.7165 83.4455 100.435 80.713C101.435 79.042 102.513 77.421 103.752 75.47H101.734C93.626 75.47 85.517 75.439 77.41 75.498C75.975 75.508 75.453 75.173 75.466 73.626C75.541 65.226 75.502 56.82 75.502 48.417V46.597C76.492 47.381 77.218 47.922 77.902 48.507C81.602 51.651 85.776 53.244 90.683 52.521C93.759 52.0165 96.6065 50.5811 98.8415 48.4082C101.077 46.2354 102.592 43.4296 103.183 40.369C103.735 37.2994 103.31 34.1339 101.968 31.3187C100.625 28.5035 98.4335 26.1805 95.701 24.677C89.917 21.509 83.679 22.205 78.286 26.618C77.463 27.291 76.638 27.961 75.496 28.892V0H145.982C147.244 0.395969 148.376 1.12519 149.259 2.11078C150.141 3.09637 150.741 4.30182 150.996 5.60001L151 75.5Z" fill="#004C77"/>
<path d="M75.5 151V122.667C74.494 123.289 73.761 123.728 73.042 124.19C70.223 126.005 67.368 127.668 63.914 128.053C60.2088 128.428 56.4979 127.397 53.518 125.163C50.538 122.929 48.507 119.657 47.828 115.995C47.2075 113.155 47.4687 110.194 48.5766 107.507C49.6846 104.819 51.5864 102.534 54.028 100.957C59.162 97.319 64.669 97.309 70.137 100.397C71.871 101.376 73.521 102.497 75.492 103.738V101.867C75.492 95.2837 75.492 88.7 75.492 82.116C75.492 80.198 75.5 80.193 77.466 80.191C82.7727 80.1876 88.079 80.1876 93.385 80.191C93.905 80.191 94.425 80.238 95.047 80.269C91.656 90.592 93.773 99.201 102.971 105.11C109.929 109.58 117.426 109.392 124.196 104.664C132.809 98.649 134.689 90.217 131.341 80.212H150.996V145.095C150.788 146.586 150.099 147.969 149.034 149.033C147.97 150.098 146.587 150.786 145.096 150.995L75.5 151Z" fill="#004C77"/>
<path d="M0 81.103C1.768 76.546 3.247 75.534 8.146 75.534H28.358C27.511 74.224 26.89 73.247 26.253 72.281C24.4409 69.8159 23.2926 66.9266 22.918 63.89C22.5688 61.1326 23.0495 58.3336 24.2989 55.8507C25.5483 53.3678 27.5095 51.3138 29.932 49.9511C39.474 44.1641 51.043 49.798 52.65 60.862C53.0532 64.2166 52.2688 67.6066 50.433 70.4431C49.486 72.0431 48.461 73.596 47.311 75.427C48.068 75.471 48.617 75.527 49.166 75.527C55.75 75.534 62.335 75.5751 68.917 75.4981C70.428 75.4801 70.833 75.947 70.81 77.423C70.725 82.777 70.773 88.134 70.765 93.489C70.765 93.967 70.72 94.444 70.69 95.04C60.15 91.592 51.418 93.8271 45.535 103.376C41.356 110.158 41.614 117.441 46.107 123.984C52.128 132.753 60.622 134.698 70.782 131.296V150.996H5.01398C3.75197 150.6 2.62024 149.87 1.73785 148.885C0.855471 147.899 0.255109 146.694 0 145.396V81.103Z" fill="#004C77"/>
</svg>
