<svg width="64" height="64" viewBox="0 0 64 64" fill="none" xmlns="http://www.w3.org/2000/svg">
<g clip-path="url(#clip0)">
<path d="M29.907 0H33.63C34.715 0.139 35.805 0.242983 36.884 0.419983C42.5484 1.34168 47.8572 3.78071 52.2464 7.47787C56.6357 11.175 59.9413 15.9922 61.8121 21.4176C63.6829 26.843 64.049 32.6738 62.8714 38.2905C61.6939 43.9072 59.0167 49.1001 55.1243 53.3172C51.2319 57.5343 46.2698 60.6181 40.7652 62.241C35.2606 63.8639 29.4192 63.9653 23.8617 62.5343C18.3041 61.1033 13.238 58.1934 9.20169 54.1139C5.1654 50.0343 2.3097 44.9375 0.938019 39.365C0.487019 37.529 0.307007 35.625 0.00100708 33.753V29.782C0.121007 28.863 0.231992 27.943 0.360992 27.025C1.3526 20.5741 4.30126 14.5833 8.8082 9.86267C13.3151 5.14201 19.163 1.91921 25.561 0.630005C26.996 0.359005 28.457 0.206 29.907 0ZM29.148 36.152C29.148 36.524 29.128 36.898 29.148 37.268C29.1956 37.93 29.4923 38.5494 29.9785 39.0013C30.4646 39.4531 31.1041 39.7039 31.7678 39.703C32.4315 39.7021 33.0702 39.4496 33.5551 38.9965C34.0401 38.5433 34.3352 37.9231 34.381 37.261C34.409 36.828 34.39 36.393 34.405 35.961C34.3967 35.429 34.5454 34.9063 34.8324 34.4583C35.1195 34.0103 35.5322 33.6568 36.019 33.442C37.9445 32.5063 39.6181 31.1235 40.9 29.409C42.483 27.332 43.717 25.062 43.655 22.379C43.6417 19.2229 42.3753 16.2014 40.1342 13.9791C37.8932 11.7568 34.8611 10.5157 31.705 10.529C28.5489 10.5423 25.5274 11.8087 23.3051 14.0498C21.0828 16.2908 19.8418 19.3229 19.855 22.479C19.8394 23.1615 20.0917 23.8229 20.5579 24.3216C21.0241 24.8203 21.6671 25.1166 22.349 25.147C23.0178 25.1811 23.6747 24.9607 24.1875 24.5301C24.7003 24.0994 25.031 23.4906 25.113 22.826C25.1415 22.6214 25.1596 22.4154 25.167 22.209C25.2322 20.7235 25.797 19.3036 26.7699 18.1793C27.7429 17.0549 29.067 16.292 30.5277 16.0143C31.9884 15.7365 33.5002 15.9601 34.8179 16.6489C36.1356 17.3376 37.1822 18.4511 37.788 19.809C38.1917 20.6073 38.3839 21.4958 38.3462 22.3895C38.3086 23.2833 38.0424 24.1525 37.573 24.914C36.6629 26.526 35.306 27.8404 33.666 28.699C32.2593 29.354 31.0789 30.4121 30.2746 31.739C29.4702 33.0659 29.078 34.6019 29.148 36.152ZM34.39 47.623C34.3844 47.1051 34.2257 46.6005 33.9337 46.1728C33.6417 45.745 33.2296 45.4133 32.7494 45.2195C32.2691 45.0257 31.7422 44.9785 31.2351 45.0838C30.728 45.1891 30.2635 45.4421 29.9001 45.8111C29.5366 46.1801 29.2906 46.6485 29.1931 47.1571C29.0955 47.6657 29.1508 48.1918 29.3519 48.6691C29.553 49.1463 29.8909 49.5534 30.323 49.8388C30.7552 50.1242 31.2621 50.2753 31.78 50.273C32.1271 50.2764 32.4713 50.21 32.7922 50.0775C33.1131 49.9451 33.404 49.7494 33.6476 49.502C33.8911 49.2547 34.0824 48.9609 34.2099 48.6381C34.3375 48.3152 34.3987 47.97 34.39 47.623Z" fill="#004C77"/>
</g>
<defs>
<clipPath id="clip0">
<rect width="63.521" height="63.543" fill="white"/>
</clipPath>
</defs>
</svg>
