<svg width="60" height="72" viewBox="0 0 60 72" fill="none" xmlns="http://www.w3.org/2000/svg">
<g clip-path="url(#clip0)">
<path d="M44.17 16.7111C37.924 16.7111 35.285 19.7781 30.935 19.7781C26.474 19.7781 23.072 16.7301 17.663 16.7301C12.363 16.7301 6.715 20.0571 3.127 25.7301C-1.91 33.7231 -1.055 48.7791 7.105 61.6051C10.023 66.1961 13.927 71.3451 19.039 71.4051H19.132C23.575 71.4051 24.894 68.4121 31.01 68.3751H31.103C37.126 68.3751 38.334 71.3861 42.758 71.3861H42.852C47.964 71.3301 52.072 65.6241 54.99 61.0511C56.7643 58.3147 58.2713 55.414 59.49 52.3891C47.69 47.7791 45.79 30.5661 57.464 23.9681C53.895 19.3771 48.895 16.7191 44.173 16.7191L44.17 16.7111Z" fill="#004C77"/>
<path d="M42.795 0C38.6366 0.518439 34.8391 2.62284 32.195 5.874C29.895 8.755 27.995 13.03 28.738 17.174H29.038C32.997 17.174 37.05 14.72 39.41 11.574C42.021 8.31359 43.2377 4.15348 42.795 0Z" fill="#004C77"/>
</g>
<defs>
<clipPath id="clip0">
<rect width="59.487" height="71.397" fill="white"/>
</clipPath>
</defs>
</svg>
