<svg width="64" height="64" viewBox="0 0 64 64" fill="none" xmlns="http://www.w3.org/2000/svg">
<g clip-path="url(#clip0)">
<path d="M63.954 25.547V61.7081C63.7963 62.1703 63.4908 62.5677 63.0847 62.8388C62.6785 63.1099 62.1943 63.2397 61.707 63.2081C41.8976 63.1967 22.0883 63.1938 2.27899 63.1991C1.97359 63.2398 1.66291 63.2102 1.37066 63.1127C1.07841 63.0151 0.812299 62.8522 0.592525 62.6363C0.372751 62.4204 0.205156 62.1572 0.102474 61.8667C-0.000208452 61.5762 -0.035259 61.2661 -4.31575e-06 60.9601C-4.31575e-06 49.4034 0.00501033 37.8464 0.0150103 26.2891C0.0150103 25.9661 0.168954 25.4701 0.394954 25.3691C0.620954 25.2681 1.10399 25.4691 1.35699 25.6691C11.0237 33.6024 20.681 41.5481 30.329 49.5061C31.577 50.5341 32.389 50.5391 33.634 49.5141C43.2873 41.5634 52.939 33.6107 62.589 25.6561C63.05 25.2851 63.457 25.124 63.954 25.547Z" fill="#004C77"/>
<path d="M13.372 0H50.596C51.0882 0.167378 51.5088 0.497312 51.7885 0.935516C52.0682 1.37372 52.1904 1.8941 52.135 2.41101C52.1097 11.1317 52.1097 19.852 52.135 28.572C52.1488 28.8253 52.0991 29.078 51.9903 29.3072C51.8814 29.5363 51.7171 29.7346 51.512 29.884C45.2567 34.98 39.0087 40.085 32.768 45.199C32.056 45.781 31.927 45.783 31.218 45.199C24.962 40.071 18.7041 34.9454 12.4441 29.822C12.2462 29.6799 12.0871 29.4905 11.9813 29.2711C11.8754 29.0517 11.8262 28.8093 11.838 28.566C11.854 19.8453 11.854 11.125 11.838 2.405C11.7808 1.88924 11.9017 1.36942 12.1808 0.931915C12.4599 0.494407 12.8802 0.165547 13.372 0ZM19.518 17.532C19.5032 19.5283 20.1464 21.4739 21.348 23.068C23.9262 26.4185 27.395 28.9759 31.3581 30.448C31.8537 30.5916 32.3837 30.5591 32.8581 30.356C33.8052 29.9742 34.7247 29.5271 35.61 29.018C38.3731 27.592 40.7742 25.5539 42.63 23.059C43.3458 22.1218 43.868 21.0515 44.1662 19.9105C44.4644 18.7695 44.5327 17.5806 44.367 16.413C44.1385 15.1554 43.6102 13.9714 42.8269 12.9613C42.0437 11.9512 41.0285 11.1447 39.8675 10.6102C38.7064 10.0756 37.4335 9.82879 36.1568 9.89056C34.8801 9.95234 33.6371 10.3209 32.533 10.965C32.3696 11.0809 32.1738 11.1423 31.9734 11.1405C31.7731 11.1387 31.5784 11.0738 31.417 10.955C26.169 7.96402 19.532 11.64 19.518 17.532Z" fill="#004C77"/>
<path d="M7.93 21.146C7.93 22.254 7.95104 23.363 7.91504 24.469C7.90604 24.739 7.76705 25.157 7.57904 25.23C7.42975 25.2631 7.275 25.263 7.12574 25.2298C6.97647 25.1966 6.83629 25.1312 6.71503 25.038C5.36903 23.963 4.05304 22.85 2.73304 21.738C2.17104 21.266 2.17702 20.924 2.75202 20.438C4.05202 19.345 5.35204 18.244 6.68604 17.18C6.80336 17.0809 6.94102 17.0089 7.0893 16.969C7.23757 16.9291 7.39281 16.9222 7.54401 16.949C7.65998 17.0476 7.75313 17.1702 7.81702 17.3083C7.88091 17.4464 7.914 17.5968 7.91401 17.749C7.95401 18.889 7.93 20.017 7.93 21.146Z" fill="#004C77"/>
<path d="M56.04 21.107C56.04 19.999 56.016 18.89 56.056 17.784C56.0536 17.631 56.0838 17.4793 56.1447 17.339C56.2056 17.1986 56.2956 17.0728 56.409 16.97C56.5586 16.9381 56.7135 16.9402 56.8622 16.9762C57.0109 17.0122 57.1496 17.0812 57.268 17.178C58.614 18.253 59.931 19.365 61.251 20.473C61.786 20.922 61.788 21.289 61.251 21.736C59.915 22.857 58.58 23.979 57.219 25.068C57.1059 25.1571 56.9741 25.2195 56.8335 25.2505C56.6929 25.2815 56.5471 25.2803 56.407 25.247C56.2966 25.1547 56.2077 25.0394 56.1464 24.9092C56.0851 24.779 56.0529 24.637 56.052 24.493C56.018 23.364 56.04 22.235 56.04 21.107Z" fill="#004C77"/>
<path d="M27.998 13.8091C28.917 13.9066 29.7665 14.3438 30.38 15.0351C30.5618 15.2891 30.8014 15.4963 31.0789 15.6397C31.3564 15.7831 31.664 15.8586 31.9764 15.86C32.2888 15.8613 32.597 15.7885 32.8758 15.6476C33.1546 15.5066 33.3959 15.3015 33.58 15.0491C34.1781 14.4006 34.9784 13.9741 35.8502 13.8391C36.722 13.7042 37.6138 13.8688 38.38 14.3061C39.138 14.7161 39.7323 15.3739 40.0636 16.1695C40.3949 16.9651 40.443 17.8502 40.2 18.6771C39.723 20.4643 38.6448 22.0326 37.147 23.1181C35.647 24.2851 33.995 25.2541 32.392 26.2841C32.2899 26.341 32.1768 26.3753 32.0603 26.3844C31.9438 26.3936 31.8267 26.3774 31.717 26.3371C29.1008 25.1628 26.7957 23.3926 24.986 21.1681C24.2696 20.2845 23.8188 19.2158 23.686 18.0861C23.445 15.6791 25.159 13.7981 27.998 13.8091Z" fill="#004C77"/>
</g>
<defs>
<clipPath id="clip0">
<rect width="63.955" height="63.213" fill="white"/>
</clipPath>
</defs>
</svg>
