<svg width="60" height="70" viewBox="0 0 60 70" fill="none" xmlns="http://www.w3.org/2000/svg">
<g clip-path="url(#clip0)">
<path d="M25.547 42.1099C25.521 42.1879 25.3583 42.1813 25.059 42.0899C24.7597 41.9986 24.3497 41.8489 23.829 41.6409L23.048 41.2889C21.8634 40.7467 20.7261 40.1065 19.648 39.3749C19.466 39.2416 18.9327 38.8316 18.048 38.1449C17.1633 37.4583 16.6687 37.0873 16.564 37.0319C14.9772 39.5015 13.2287 41.8633 11.33 44.1019C10.1137 45.6699 8.73982 47.1091 7.22999 48.3969C6.98355 48.4807 6.72753 48.5331 6.46799 48.5529C6.2306 48.6119 5.98239 48.6119 5.74499 48.5529C5.90099 48.4489 6.96766 47.2509 8.94499 44.9589C9.49166 44.3343 10.605 42.8369 12.285 40.4669C13.3842 38.9834 14.4076 37.4451 15.351 35.8579C15.7937 35.0766 16.4577 33.7939 17.343 32.0099C17.8667 31.0274 18.336 30.0169 18.749 28.9829C17.2873 29.3117 15.8505 29.7425 14.449 30.2719C14.241 30.3239 13.883 30.4216 13.375 30.5649C12.867 30.7083 12.4177 30.8319 12.027 30.9359C11.8024 30.9911 11.5807 31.0579 11.363 31.1359C11.2936 31.2607 11.2662 31.4044 11.285 31.5459C11.2991 31.671 11.2858 31.7976 11.246 31.9169C11.1127 32.1776 10.709 32.3729 10.035 32.5029C9.43657 32.6853 8.79741 32.6853 8.19899 32.5029C7.96858 32.4525 7.75168 32.3532 7.56294 32.2118C7.37421 32.0703 7.21804 31.89 7.10499 31.6829C6.96868 31.4028 6.90017 31.0945 6.90499 30.7829C7.21933 30.6957 7.539 30.6289 7.86199 30.5829C8.24968 30.5244 8.63417 30.4463 9.01399 30.3489C10.5247 29.9323 11.8913 29.5156 13.114 29.0989C15.718 28.1876 17.046 27.7319 17.098 27.7319C17.6835 27.5384 18.2467 27.283 18.778 26.9699C19.3354 26.6591 19.9092 26.3787 20.497 26.1299C20.7317 26.0519 21.0117 25.9479 21.337 25.8179C21.6623 25.6879 21.851 25.6163 21.903 25.6029C21.9815 25.5918 22.0615 25.5986 22.137 25.6229C22.1867 26.0522 22.1736 26.4865 22.098 26.9119C21.9601 27.2746 21.7971 27.6271 21.61 27.9669C21.2847 28.6183 20.9397 29.3149 20.575 30.0569C20.2103 30.7989 19.989 31.2353 19.911 31.3659C18.9954 33.1213 17.9915 34.8292 16.903 36.4829L19.403 37.5769C19.7157 37.7329 20.6857 38.1496 22.313 38.8269C23.9403 39.5043 24.8193 39.8689 24.95 39.9209C25.054 39.9469 25.1907 40.2803 25.36 40.9209C25.4997 41.3017 25.5596 41.7071 25.536 42.1119L25.547 42.1099ZM17.539 23.1249C17.62 23.4965 17.5646 23.8848 17.383 24.2189C16.9298 24.9309 16.2372 25.4575 15.43 25.7039C14.686 26.0091 13.8902 26.1684 13.086 26.1729C12.3501 26.0645 11.6741 25.7057 11.172 25.1569C10.7819 24.7069 10.5378 24.1489 10.472 23.5569L10.511 23.4399C10.7454 23.5664 11.0067 23.6349 11.273 23.6399C11.616 23.6928 11.965 23.6928 12.308 23.6399C12.5687 23.5879 13.324 23.3796 14.574 23.0149C15.2704 22.7617 15.9903 22.5784 16.723 22.4679C16.9185 22.4537 17.112 22.5144 17.2644 22.6377C17.4167 22.7611 17.5163 22.9378 17.543 23.1319L17.539 23.1249ZM44.805 28.1639L47.266 37.0309L41.836 35.3899L44.805 28.1639ZM1.52299 59.4139L28.63 50.3519V10.0399L1.52099 19.1399V59.4149L1.52299 59.4139ZM50 47.0319L53.984 48.2429L46.914 22.5789L43.008 21.3679L34.57 42.3049L38.554 43.5159L40.312 39.2159L48.554 41.7549L50 47.0319ZM30.351 9.45395L52.73 16.6409V1.79695L30.351 9.45395ZM42.5 61.1329L48.672 61.6409L46.563 67.891L45 65.313C41.727 67.4306 38.06 68.8657 34.219 69.532C33.0517 69.8017 31.8613 69.9587 30.664 70.001H27.383C24.7233 69.8888 22.096 69.3749 19.59 68.477C17.0452 67.7427 14.6278 66.6231 12.422 65.157C12.3269 65.0825 12.2495 64.9877 12.1955 64.8796C12.1416 64.7715 12.1123 64.6528 12.11 64.532C12.1061 64.3371 12.1778 64.1482 12.31 64.005C12.3739 63.9343 12.4525 63.8784 12.5402 63.8413C12.628 63.8041 12.7228 63.7866 12.818 63.7899C13.0665 63.8463 13.3034 63.9455 13.518 64.083C13.8827 64.2783 14.28 64.4933 14.71 64.728C15.14 64.9626 15.4067 65.1059 15.51 65.158C17.5045 66.1569 19.5908 66.9606 21.74 67.558C23.7371 68.1572 25.8072 68.4792 27.892 68.515C30.08 68.5409 32.2652 68.3513 34.416 67.949C36.5211 67.498 38.5758 66.837 40.549 65.976C40.9397 65.794 41.3367 65.5923 41.74 65.3709C42.1433 65.1496 42.586 64.9023 43.068 64.629C43.5493 64.3556 43.9203 64.1406 44.181 63.9839L42.5 61.1329ZM60 18.9849V61.1329L29.765 51.5239C29.4003 51.6799 24.5177 53.3399 15.117 56.5039C5.71632 59.6679 0.924658 61.2499 0.741991 61.2499C0.585538 61.2547 0.43193 61.2074 0.305249 61.1155C0.178567 61.0235 0.0859757 60.8922 0.0419908 60.7419C0.0372339 60.7007 0.0239533 60.6608 0.00299072 60.6249V18.5159C0.0390122 18.3798 0.0913938 18.2485 0.158991 18.1249C0.378024 17.9168 0.647017 17.7687 0.939991 17.6949C3.70066 16.7836 5.64066 16.1326 6.75999 15.7419V0.741948L28.56 8.47595C28.612 8.47595 30.702 7.75995 34.83 6.32795C38.958 4.89595 43.0707 3.48328 47.168 2.08995C51.2693 0.694615 53.372 -0.00305176 53.476 -0.00305176C53.9967 -0.00305176 54.257 0.270281 54.257 0.816948V17.1489L60 18.9849Z" fill="#004C77"/>
</g>
<defs>
<clipPath id="clip0">
<rect width="60" height="70" fill="white"/>
</clipPath>
</defs>
</svg>
