<svg width="74" height="74" viewBox="0 0 74 74" fill="none" xmlns="http://www.w3.org/2000/svg">
<g clip-path="url(#clip0)">
<path d="M71.851 57.9299C69.02 55.0989 62.221 50.8419 58.869 49.2429C54.978 47.3749 53.553 47.4129 50.799 49.3969C48.507 51.0529 47.024 52.5969 44.385 52.0159C41.746 51.4569 36.546 47.5089 31.5 42.4819C26.454 37.4359 22.525 32.2349 21.966 29.5969C21.407 26.9389 22.948 25.4749 24.585 23.1829C26.569 20.4289 26.627 19.0029 24.739 15.1129C23.139 11.7419 18.903 4.9629 16.052 2.1309C13.221 -0.702096 12.585 -0.0830959 11.025 0.474904C9.42046 1.14862 7.88074 1.96735 6.425 2.9209C3.591 4.8089 2.01 6.3879 0.894 8.7569C-0.206 11.1259 -1.475 15.5369 4.994 27.0569C9.77033 35.8757 15.82 43.9427 22.948 50.9979L22.967 51.0169L22.986 51.0359C30.0454 58.1578 38.1116 64.2052 46.927 68.9849C58.445 75.4569 62.856 74.1849 65.227 73.0849C67.598 71.9849 69.175 70.4079 71.063 67.5569C72.0169 66.1012 72.836 64.5615 73.51 62.9569C74.066 61.3979 74.701 60.7609 71.851 57.9299Z" fill="#004C77"/>
</g>
<defs>
<clipPath id="clip0">
<rect width="73.988" height="73.982" fill="white"/>
</clipPath>
</defs>
</svg>
