<svg width="93" height="70" viewBox="0 0 93 70" fill="none" xmlns="http://www.w3.org/2000/svg">
<g clip-path="url(#clip0)">
<path d="M85.878 9.90903H79.411V0.209033L66.06 0.0090332L66.129 9.91803H26.011L26.285 0.0090332L13.212 0.209033V10.118L6.60601 9.91803C4.85588 9.91882 3.17754 10.6139 1.93927 11.8506C0.700992 13.0874 0.00392025 14.7649 0.00100708 16.515V62.758C0.00153571 64.5089 0.696869 66.1879 1.93432 67.4265C3.17178 68.6651 4.85019 69.3619 6.60101 69.364H85.878C87.6299 69.3635 89.3098 68.6673 90.5486 67.4286C91.7873 66.1898 92.4835 64.5099 92.484 62.758V16.515C92.4835 14.7632 91.7873 13.0832 90.5486 11.8445C89.3098 10.6057 87.6299 9.90956 85.878 9.90903ZM69.363 3.30303H75.969V16.515H69.363V3.30303ZM26.424 25.803C30.414 25.803 33.651 30.054 33.651 35.303C33.651 40.552 30.414 44.803 26.424 44.803C22.434 44.803 19.197 40.552 19.197 35.303C19.197 30.054 22.434 25.803 26.424 25.803ZM16.515 3.30303H23.121V16.515H16.515V3.30303ZM12.115 55.98C12.115 55.98 12.898 49.698 14.678 48.512C16.458 47.326 21.578 46.537 21.578 46.537C21.578 46.537 24.901 50.088 26.315 50.088C27.729 50.088 31.048 46.537 31.048 46.537C31.048 46.537 36.174 47.323 37.955 48.512C40.046 49.906 40.568 55.98 40.568 55.98H12.112H12.115ZM79.275 52.849H49.545V49.549H79.272L79.275 52.849ZM79.275 46.243H49.545V42.943H79.272L79.275 46.243ZM79.275 39.637H49.545V36.337H79.272L79.275 39.637ZM79.275 33.031H49.545V29.731H79.272L79.275 33.031Z" fill="#004C77"/>
</g>
<defs>
<clipPath id="clip0">
<rect width="92.485" height="69.363" fill="white"/>
</clipPath>
</defs>
</svg>
