<svg width="166" height="166" viewBox="0 0 166 166" fill="none" xmlns="http://www.w3.org/2000/svg">
<path d="M142 0H24C10.7452 0 0 10.7452 0 24V142C0 155.255 10.7452 166 24 166H142C155.255 166 166 155.255 166 142V24C166 10.7452 155.255 0 142 0Z" fill="white"/>
<path d="M95.998 46.9951H70.034C68.755 46.9934 67.4882 47.2441 66.3062 47.7327C65.1242 48.2214 64.0502 48.9385 63.1458 49.8429C62.2414 50.7473 61.5243 51.8213 61.0356 53.0033C60.5469 54.1853 60.2963 55.4521 60.298 56.7311V108.656C60.2959 109.935 60.5463 111.203 61.0347 112.385C61.5232 113.567 62.2403 114.642 63.1447 115.546C64.0492 116.451 65.1233 117.168 66.3055 117.657C67.4877 118.146 68.7547 118.397 70.034 118.395H95.998C97.277 118.397 98.5438 118.146 99.7258 117.658C100.908 117.169 101.982 116.452 102.886 115.547C103.791 114.643 104.508 113.569 104.996 112.387C105.485 111.205 105.736 109.938 105.734 108.659V56.7311C105.736 55.4521 105.485 54.1853 104.996 53.0033C104.508 51.8213 103.791 50.7473 102.886 49.8429C101.982 48.9385 100.908 48.2214 99.7258 47.7327C98.5438 47.2441 97.277 46.9934 95.998 46.9951ZM89.506 111.902H76.525V108.656H89.506V111.902ZM100.053 102.166H65.977V56.7311H100.053V102.166Z" fill="#004C77"/>
</svg>
