<svg width="76" height="87" viewBox="0 0 76 87" fill="none" xmlns="http://www.w3.org/2000/svg">
<g clip-path="url(#clip0)">
<path d="M67.86 76.008H8.13897C7.41891 76.008 6.72834 76.294 6.21918 76.8032C5.71001 77.3124 5.42397 78.0029 5.42397 78.723V84.152C5.42397 84.5085 5.4942 84.8616 5.63064 85.191C5.76708 85.5204 5.96706 85.8197 6.21918 86.0718C6.47129 86.3239 6.77059 86.5239 7.09999 86.6603C7.42938 86.7968 7.78243 86.867 8.13897 86.867H67.86C68.2165 86.867 68.5696 86.7968 68.899 86.6603C69.2284 86.5239 69.5276 86.3239 69.7798 86.0718C70.0319 85.8197 70.2319 85.5204 70.3683 85.191C70.5047 84.8616 70.575 84.5085 70.575 84.152V78.723C70.575 78.0029 70.2889 77.3124 69.7798 76.8032C69.2706 76.294 68.58 76.008 67.86 76.008ZM70.575 27.146H43.429V19H50.215C50.5749 19 50.92 18.857 51.1745 18.6025C51.429 18.3481 51.572 18.0029 51.572 17.643V9.5C51.572 9.1401 51.429 8.79494 51.1745 8.54046C50.92 8.28597 50.5749 8.143 50.215 8.143H43.429V1.357C43.429 1.17871 43.3938 1.00217 43.3256 0.837468C43.2573 0.672764 43.1573 0.523125 43.0312 0.397103C42.905 0.271081 42.7553 0.171145 42.5906 0.103009C42.4258 0.0348719 42.2493 -0.000131015 42.071 3.68494e-07H33.928C33.5681 3.68494e-07 33.2229 0.14297 32.9684 0.397456C32.7139 0.651943 32.571 0.997102 32.571 1.357V8.144H25.784C25.4242 8.144 25.0792 8.28683 24.8248 8.5411C24.5703 8.79537 24.4272 9.14027 24.427 9.5V17.644C24.4272 18.0037 24.5703 18.3486 24.8248 18.6029C25.0792 18.8572 25.4242 19 25.784 19H32.57V27.144H5.42497C4.57364 27.1446 3.73438 27.3454 2.97496 27.7301C2.21554 28.1149 1.55725 28.6728 1.05325 29.359C0.54925 30.0451 0.21367 30.8401 0.0736103 31.6798C-0.0664497 32.5196 -0.00706428 33.3805 0.246971 34.193L12.647 70.578H63.354L75.754 34.193C76.0078 33.3805 76.0671 32.5197 75.9269 31.6801C75.7868 30.8405 75.4511 30.0457 74.9472 29.3597C74.4432 28.6737 73.785 28.1158 73.0257 27.7311C72.2663 27.3464 71.4272 27.1456 70.576 27.145L70.575 27.146Z" fill="#004C77"/>
</g>
<defs>
<clipPath id="clip0">
<rect width="76" height="86.866" fill="white"/>
</clipPath>
</defs>
</svg>
