<svg width="63" height="63" viewBox="0 0 63 63" fill="none" xmlns="http://www.w3.org/2000/svg">
<g clip-path="url(#clip0)">
<path d="M62.766 6.725V56.041C62.766 57.8246 62.0575 59.5351 60.7963 60.7963C59.5351 62.0575 57.8246 62.766 56.041 62.766H6.725C4.94142 62.766 3.23089 62.0575 1.96971 60.7963C0.708525 59.5351 0 57.8246 0 56.041L0 6.725C0 4.94142 0.708525 3.23089 1.96971 1.96971C3.23089 0.708525 4.94142 0 6.725 0H56.041C57.8246 0 59.5351 0.708525 60.7963 1.96971C62.0575 3.23089 62.766 4.94142 62.766 6.725ZM42.591 36.987C40.632 36.9851 38.7437 37.7189 37.3 39.043L27.777 33.33C28.1022 32.0524 28.1022 30.7136 27.777 29.436L37.3 23.723C38.688 24.9888 40.4852 25.7129 42.3631 25.7629C44.241 25.8129 46.0741 25.1855 47.5276 23.9953C48.981 22.8051 49.9576 21.1317 50.279 19.2809C50.6003 17.43 50.245 15.5253 49.2778 13.9149C48.3106 12.3045 46.7962 11.0959 45.0114 10.5099C43.2266 9.92398 41.2905 9.99986 39.557 10.7237C37.8235 11.4475 36.4084 12.7709 35.5702 14.4521C34.732 16.1333 34.5268 18.06 34.992 19.88L25.471 25.593C24.3478 24.5659 22.9502 23.8876 21.4484 23.6408C19.9465 23.394 18.4053 23.5894 17.0126 24.2031C15.6198 24.8167 14.4356 25.8222 13.6042 27.0971C12.7728 28.3719 12.3301 29.861 12.3301 31.383C12.3301 32.905 12.7728 34.3941 13.6042 35.6689C14.4356 36.9438 15.6198 37.9493 17.0126 38.5629C18.4053 39.1766 19.9465 39.372 21.4484 39.1252C22.9502 38.8784 24.3478 38.2001 25.471 37.173L34.992 42.886C34.5861 44.4708 34.6856 46.1428 35.2767 47.6682C35.8678 49.1937 36.9209 50.4962 38.2887 51.3937C39.6564 52.2912 41.2705 52.7388 42.9052 52.6738C44.5398 52.6089 46.1133 52.0346 47.4056 51.0314C48.6978 50.0282 49.6442 48.6462 50.1124 47.0787C50.5806 45.5112 50.5472 43.8366 50.0168 42.289C49.4864 40.7414 48.4856 39.3983 47.1543 38.4475C45.8231 37.4966 44.2279 36.9857 42.592 36.986L42.591 36.987Z" fill="#004C77"/>
</g>
<defs>
<clipPath id="clip0">
<rect width="62.766" height="62.766" fill="white"/>
</clipPath>
</defs>
</svg>
