<svg width="50" height="50" viewBox="0 0 50 50" fill="none" xmlns="http://www.w3.org/2000/svg">
<g clip-path="url(#clip0)">
<path d="M28 0.911764L16.414 12.4948H3.125C2.71458 12.4946 2.30816 12.5754 1.92896 12.7324C1.54976 12.8894 1.20521 13.1196 0.914998 13.4098C0.624789 13.7 0.394608 14.0445 0.237609 14.4237C0.0806096 14.8029 -0.000131237 15.2093 1.60117e-07 15.6198V34.3698C1.60117e-07 35.1986 0.32924 35.9934 0.915291 36.5795C1.50134 37.1655 2.2962 37.4948 3.125 37.4948H16.414L28 49.0758C28.4375 49.5116 28.9942 49.8082 29.6 49.928C30.2057 50.0479 30.8334 49.9858 31.4039 49.7494C31.9744 49.513 32.4622 49.113 32.8056 48.5998C33.1491 48.0867 33.333 47.4833 33.334 46.8658V3.12476C33.3336 2.50699 33.1501 1.90319 32.8069 1.38955C32.4636 0.875911 31.9759 0.475457 31.4053 0.238717C30.8347 0.0019771 30.2067 -0.0604389 29.6007 0.0593451C28.9946 0.179129 28.4376 0.475745 28 0.911764ZM44.039 14.9848C43.6791 14.7814 43.2824 14.6514 42.872 14.6024C42.4615 14.5533 42.0454 14.5862 41.6477 14.699C41.25 14.8119 40.8787 15.0025 40.5551 15.2598C40.2316 15.5171 39.9623 15.8361 39.7629 16.1982C39.5635 16.5603 39.4378 16.9583 39.3933 17.3693C39.3487 17.7803 39.3861 18.196 39.5033 18.5925C39.6205 18.9889 39.8152 19.3581 40.076 19.6788C40.3369 19.9995 40.6587 20.2653 41.023 20.4608C41.8458 20.8979 42.5341 21.5508 43.0141 22.3493C43.4942 23.1479 43.7478 24.062 43.7478 24.9938C43.7478 25.9255 43.4942 26.8396 43.0141 27.6382C42.5341 28.4368 41.8458 29.0896 41.023 29.5268C40.3064 29.9317 39.7784 30.603 39.5537 31.3949C39.329 32.1868 39.4257 33.0353 39.8228 33.7564C40.2199 34.4774 40.8854 35.0127 41.6747 35.246C42.4641 35.4794 43.3137 35.392 44.039 35.0028C45.8418 34.0257 47.3472 32.5799 48.3963 30.8181C49.4454 29.0563 49.9992 27.0438 49.9992 24.9933C49.9992 22.9427 49.4454 20.9303 48.3963 19.1684C47.3472 17.4066 45.8418 15.9608 44.039 14.9838V14.9848Z" fill="#004C77"/>
</g>
<defs>
<clipPath id="clip0">
<rect width="50" height="49.999" fill="white"/>
</clipPath>
</defs>
</svg>
