<svg width="1042" height="446" viewBox="0 0 1042 446" fill="none" xmlns="http://www.w3.org/2000/svg">
<path d="M59.1574 311.76V334H55.5094V311.76H59.1574ZM72.8429 316.08C74.2295 316.08 75.4669 316.368 76.5549 316.944C77.6642 317.52 78.5282 318.373 79.1469 319.504C79.7655 320.635 80.0749 322 80.0749 323.6V334H76.4589V324.144C76.4589 322.565 76.0642 321.36 75.2749 320.528C74.4855 319.675 73.4082 319.248 72.0429 319.248C70.6775 319.248 69.5895 319.675 68.7789 320.528C67.9895 321.36 67.5949 322.565 67.5949 324.144V334H63.9469V316.368H67.5949V318.384C68.1922 317.659 68.9495 317.093 69.8669 316.688C70.8055 316.283 71.7975 316.08 72.8429 316.08ZM91.5441 330.736L96.5361 316.368H100.408L93.6881 334H89.3361L82.6481 316.368H86.5521L91.5441 330.736ZM105.022 314.032C104.36 314.032 103.806 313.808 103.358 313.36C102.91 312.912 102.686 312.357 102.686 311.696C102.686 311.035 102.91 310.48 103.358 310.032C103.806 309.584 104.36 309.36 105.022 309.36C105.662 309.36 106.206 309.584 106.654 310.032C107.102 310.48 107.326 311.035 107.326 311.696C107.326 312.357 107.102 312.912 106.654 313.36C106.206 313.808 105.662 314.032 105.022 314.032ZM106.814 316.368V334H103.166V316.368H106.814ZM115.859 319.344V329.104C115.859 329.765 116.008 330.245 116.307 330.544C116.627 330.821 117.16 330.96 117.907 330.96H120.147V334H117.267C115.624 334 114.366 333.616 113.491 332.848C112.616 332.08 112.179 330.832 112.179 329.104V319.344H110.099V316.368H112.179V311.984H115.859V316.368H120.147V319.344H115.859ZM122.293 325.104C122.293 323.333 122.656 321.765 123.381 320.4C124.128 319.035 125.131 317.979 126.389 317.232C127.669 316.464 129.077 316.08 130.613 316.08C132 316.08 133.205 316.357 134.229 316.912C135.275 317.445 136.107 318.117 136.725 318.928V316.368H140.405V334H136.725V331.376C136.107 332.208 135.264 332.901 134.197 333.456C133.131 334.011 131.915 334.288 130.549 334.288C129.035 334.288 127.648 333.904 126.389 333.136C125.131 332.347 124.128 331.259 123.381 329.872C122.656 328.464 122.293 326.875 122.293 325.104ZM136.725 325.168C136.725 323.952 136.469 322.896 135.957 322C135.467 321.104 134.816 320.421 134.005 319.952C133.195 319.483 132.32 319.248 131.381 319.248C130.443 319.248 129.568 319.483 128.757 319.952C127.947 320.4 127.285 321.072 126.773 321.968C126.283 322.843 126.037 323.888 126.037 325.104C126.037 326.32 126.283 327.387 126.773 328.304C127.285 329.221 127.947 329.925 128.757 330.416C129.589 330.885 130.464 331.12 131.381 331.12C132.32 331.12 133.195 330.885 134.005 330.416C134.816 329.947 135.467 329.264 135.957 328.368C136.469 327.451 136.725 326.384 136.725 325.168ZM152.293 325.104C152.293 323.333 152.656 321.765 153.381 320.4C154.128 319.035 155.131 317.979 156.389 317.232C157.669 316.464 159.077 316.08 160.613 316.08C162 316.08 163.205 316.357 164.229 316.912C165.275 317.445 166.107 318.117 166.725 318.928V316.368H170.405V334H166.725V331.376C166.107 332.208 165.264 332.901 164.197 333.456C163.131 334.011 161.915 334.288 160.549 334.288C159.035 334.288 157.648 333.904 156.389 333.136C155.131 332.347 154.128 331.259 153.381 329.872C152.656 328.464 152.293 326.875 152.293 325.104ZM166.725 325.168C166.725 323.952 166.469 322.896 165.957 322C165.467 321.104 164.816 320.421 164.005 319.952C163.195 319.483 162.32 319.248 161.381 319.248C160.443 319.248 159.568 319.483 158.757 319.952C157.947 320.4 157.285 321.072 156.773 321.968C156.283 322.843 156.037 323.888 156.037 325.104C156.037 326.32 156.283 327.387 156.773 328.304C157.285 329.221 157.947 329.925 158.757 330.416C159.589 330.885 160.464 331.12 161.381 331.12C162.32 331.12 163.195 330.885 164.005 330.416C164.816 329.947 165.467 329.264 165.957 328.368C166.469 327.451 166.725 326.384 166.725 325.168ZM187.765 319.344V329.104C187.765 329.765 187.915 330.245 188.213 330.544C188.533 330.821 189.067 330.96 189.813 330.96H192.053V334H189.173C187.531 334 186.272 333.616 185.397 332.848C184.523 332.08 184.085 330.832 184.085 329.104V319.344H182.005V316.368H184.085V311.984H187.765V316.368H192.053V319.344H187.765ZM211.384 316.368V334H207.736V331.92C207.16 332.645 206.402 333.221 205.464 333.648C204.546 334.053 203.565 334.256 202.52 334.256C201.133 334.256 199.885 333.968 198.776 333.392C197.688 332.816 196.824 331.963 196.184 330.832C195.565 329.701 195.256 328.336 195.256 326.736V316.368H198.872V326.192C198.872 327.771 199.266 328.987 200.056 329.84C200.845 330.672 201.922 331.088 203.288 331.088C204.653 331.088 205.73 330.672 206.52 329.84C207.33 328.987 207.736 327.771 207.736 326.192V316.368H211.384ZM222.597 334.288C221.21 334.288 219.962 334.043 218.853 333.552C217.765 333.04 216.901 332.357 216.261 331.504C215.621 330.629 215.28 329.659 215.237 328.592H219.013C219.077 329.339 219.429 329.968 220.069 330.48C220.73 330.971 221.552 331.216 222.533 331.216C223.557 331.216 224.346 331.024 224.901 330.64C225.477 330.235 225.765 329.723 225.765 329.104C225.765 328.443 225.445 327.952 224.805 327.632C224.186 327.312 223.194 326.96 221.829 326.576C220.506 326.213 219.429 325.861 218.597 325.52C217.765 325.179 217.04 324.656 216.421 323.952C215.824 323.248 215.525 322.32 215.525 321.168C215.525 320.229 215.802 319.376 216.357 318.608C216.912 317.819 217.701 317.2 218.725 316.752C219.77 316.304 220.965 316.08 222.309 316.08C224.314 316.08 225.925 316.592 227.141 317.616C228.378 318.619 229.04 319.995 229.125 321.744H225.477C225.413 320.955 225.093 320.325 224.517 319.856C223.941 319.387 223.162 319.152 222.181 319.152C221.221 319.152 220.485 319.333 219.973 319.696C219.461 320.059 219.205 320.539 219.205 321.136C219.205 321.605 219.376 322 219.717 322.32C220.058 322.64 220.474 322.896 220.965 323.088C221.456 323.259 222.181 323.483 223.141 323.76C224.421 324.101 225.466 324.453 226.277 324.816C227.109 325.157 227.824 325.669 228.421 326.352C229.018 327.035 229.328 327.941 229.349 329.072C229.349 330.075 229.072 330.971 228.517 331.76C227.962 332.549 227.173 333.168 226.149 333.616C225.146 334.064 223.962 334.288 222.597 334.288ZM66.9028 373.104C66.9028 371.333 67.2654 369.765 67.9908 368.4C68.7374 367.035 69.7401 365.979 70.9988 365.232C72.2788 364.464 73.6868 364.08 75.2228 364.08C76.6094 364.08 77.8148 364.357 78.8388 364.912C79.8841 365.445 80.7161 366.117 81.3348 366.928V364.368H85.0148V382H81.3348V379.376C80.7161 380.208 79.8734 380.901 78.8068 381.456C77.7401 382.011 76.5241 382.288 75.1588 382.288C73.6441 382.288 72.2574 381.904 70.9988 381.136C69.7401 380.347 68.7374 379.259 67.9908 377.872C67.2654 376.464 66.9028 374.875 66.9028 373.104ZM81.3348 373.168C81.3348 371.952 81.0788 370.896 80.5668 370C80.0761 369.104 79.4254 368.421 78.6148 367.952C77.8041 367.483 76.9294 367.248 75.9908 367.248C75.0521 367.248 74.1774 367.483 73.3668 367.952C72.5561 368.4 71.8948 369.072 71.3828 369.968C70.8921 370.843 70.6468 371.888 70.6468 373.104C70.6468 374.32 70.8921 375.387 71.3828 376.304C71.8948 377.221 72.5561 377.925 73.3668 378.416C74.1988 378.885 75.0734 379.12 75.9908 379.12C76.9294 379.12 77.8041 378.885 78.6148 378.416C79.4254 377.947 80.0761 377.264 80.5668 376.368C81.0788 375.451 81.3348 374.384 81.3348 373.168ZM111.15 364.08C112.537 364.08 113.774 364.368 114.862 364.944C115.972 365.52 116.836 366.373 117.454 367.504C118.094 368.635 118.414 370 118.414 371.6V382H114.798V372.144C114.798 370.565 114.404 369.36 113.614 368.528C112.825 367.675 111.748 367.248 110.382 367.248C109.017 367.248 107.929 367.675 107.118 368.528C106.329 369.36 105.934 370.565 105.934 372.144V382H102.318V372.144C102.318 370.565 101.924 369.36 101.134 368.528C100.345 367.675 99.2676 367.248 97.9023 367.248C96.5369 367.248 95.4489 367.675 94.6383 368.528C93.8489 369.36 93.4543 370.565 93.4543 372.144V382H89.8063V364.368H93.4543V366.384C94.0516 365.659 94.8089 365.093 95.7263 364.688C96.6436 364.283 97.6249 364.08 98.6703 364.08C100.078 364.08 101.337 364.379 102.446 364.976C103.556 365.573 104.409 366.437 105.006 367.568C105.54 366.501 106.372 365.659 107.502 365.04C108.633 364.4 109.849 364.08 111.15 364.08ZM124.912 362.032C124.251 362.032 123.696 361.808 123.248 361.36C122.8 360.912 122.576 360.357 122.576 359.696C122.576 359.035 122.8 358.48 123.248 358.032C123.696 357.584 124.251 357.36 124.912 357.36C125.552 357.36 126.096 357.584 126.544 358.032C126.992 358.48 127.216 359.035 127.216 359.696C127.216 360.357 126.992 360.912 126.544 361.36C126.096 361.808 125.552 362.032 124.912 362.032ZM126.704 364.368V382H123.056V364.368H126.704ZM138.598 364.08C139.963 364.08 141.168 364.357 142.214 364.912C143.28 365.445 144.112 366.117 144.71 366.928V364.368H148.39V382.288C148.39 383.909 148.048 385.349 147.366 386.608C146.683 387.888 145.691 388.891 144.39 389.616C143.11 390.341 141.574 390.704 139.782 390.704C137.392 390.704 135.408 390.139 133.83 389.008C132.251 387.899 131.355 386.384 131.142 384.464H134.758C135.035 385.381 135.622 386.117 136.518 386.672C137.435 387.248 138.523 387.536 139.782 387.536C141.254 387.536 142.438 387.088 143.334 386.192C144.251 385.296 144.71 383.995 144.71 382.288V379.344C144.091 380.176 143.248 380.88 142.182 381.456C141.136 382.011 139.942 382.288 138.598 382.288C137.062 382.288 135.654 381.904 134.374 381.136C133.115 380.347 132.112 379.259 131.366 377.872C130.64 376.464 130.278 374.875 130.278 373.104C130.278 371.333 130.64 369.765 131.366 368.4C132.112 367.035 133.115 365.979 134.374 365.232C135.654 364.464 137.062 364.08 138.598 364.08ZM144.71 373.168C144.71 371.952 144.454 370.896 143.942 370C143.451 369.104 142.8 368.421 141.99 367.952C141.179 367.483 140.304 367.248 139.366 367.248C138.427 367.248 137.552 367.483 136.742 367.952C135.931 368.4 135.27 369.072 134.758 369.968C134.267 370.843 134.022 371.888 134.022 373.104C134.022 374.32 134.267 375.387 134.758 376.304C135.27 377.221 135.931 377.925 136.742 378.416C137.574 378.885 138.448 379.12 139.366 379.12C140.304 379.12 141.179 378.885 141.99 378.416C142.8 377.947 143.451 377.264 143.942 376.368C144.454 375.451 144.71 374.384 144.71 373.168ZM160.829 382.288C159.165 382.288 157.661 381.915 156.317 381.168C154.973 380.4 153.917 379.333 153.149 377.968C152.381 376.581 151.997 374.981 151.997 373.168C151.997 371.376 152.392 369.787 153.181 368.4C153.971 367.013 155.048 365.947 156.413 365.2C157.779 364.453 159.304 364.08 160.989 364.08C162.675 364.08 164.2 364.453 165.565 365.2C166.931 365.947 168.008 367.013 168.797 368.4C169.587 369.787 169.981 371.376 169.981 373.168C169.981 374.96 169.576 376.549 168.765 377.936C167.955 379.323 166.845 380.4 165.437 381.168C164.051 381.915 162.515 382.288 160.829 382.288ZM160.829 379.12C161.768 379.12 162.643 378.896 163.453 378.448C164.285 378 164.957 377.328 165.469 376.432C165.981 375.536 166.237 374.448 166.237 373.168C166.237 371.888 165.992 370.811 165.501 369.936C165.011 369.04 164.36 368.368 163.549 367.92C162.739 367.472 161.864 367.248 160.925 367.248C159.987 367.248 159.112 367.472 158.301 367.92C157.512 368.368 156.883 369.04 156.413 369.936C155.944 370.811 155.709 371.888 155.709 373.168C155.709 375.067 156.189 376.539 157.149 377.584C158.131 378.608 159.357 379.12 160.829 379.12ZM179.988 382.288C178.601 382.288 177.353 382.043 176.244 381.552C175.156 381.04 174.292 380.357 173.652 379.504C173.012 378.629 172.67 377.659 172.628 376.592H176.404C176.468 377.339 176.82 377.968 177.46 378.48C178.121 378.971 178.942 379.216 179.924 379.216C180.948 379.216 181.737 379.024 182.292 378.64C182.868 378.235 183.156 377.723 183.156 377.104C183.156 376.443 182.836 375.952 182.196 375.632C181.577 375.312 180.585 374.96 179.22 374.576C177.897 374.213 176.82 373.861 175.988 373.52C175.156 373.179 174.43 372.656 173.812 371.952C173.214 371.248 172.916 370.32 172.916 369.168C172.916 368.229 173.193 367.376 173.748 366.608C174.302 365.819 175.092 365.2 176.116 364.752C177.161 364.304 178.356 364.08 179.7 364.08C181.705 364.08 183.316 364.592 184.532 365.616C185.769 366.619 186.43 367.995 186.516 369.744H182.868C182.804 368.955 182.484 368.325 181.908 367.856C181.332 367.387 180.553 367.152 179.572 367.152C178.612 367.152 177.876 367.333 177.364 367.696C176.852 368.059 176.596 368.539 176.596 369.136C176.596 369.605 176.766 370 177.108 370.32C177.449 370.64 177.865 370.896 178.356 371.088C178.846 371.259 179.572 371.483 180.532 371.76C181.812 372.101 182.857 372.453 183.668 372.816C184.5 373.157 185.214 373.669 185.812 374.352C186.409 375.035 186.718 375.941 186.74 377.072C186.74 378.075 186.462 378.971 185.908 379.76C185.353 380.549 184.564 381.168 183.54 381.616C182.537 382.064 181.353 382.288 179.988 382.288ZM197.778 373.104C197.778 371.333 198.14 369.765 198.866 368.4C199.612 367.035 200.615 365.979 201.874 365.232C203.154 364.464 204.562 364.08 206.098 364.08C207.484 364.08 208.69 364.357 209.714 364.912C210.759 365.445 211.591 366.117 212.21 366.928V364.368H215.89V382H212.21V379.376C211.591 380.208 210.748 380.901 209.682 381.456C208.615 382.011 207.399 382.288 206.034 382.288C204.519 382.288 203.132 381.904 201.874 381.136C200.615 380.347 199.612 379.259 198.866 377.872C198.14 376.464 197.778 374.875 197.778 373.104ZM212.21 373.168C212.21 371.952 211.954 370.896 211.442 370C210.951 369.104 210.3 368.421 209.49 367.952C208.679 367.483 207.804 367.248 206.866 367.248C205.927 367.248 205.052 367.483 204.242 367.952C203.431 368.4 202.77 369.072 202.258 369.968C201.767 370.843 201.522 371.888 201.522 373.104C201.522 374.32 201.767 375.387 202.258 376.304C202.77 377.221 203.431 377.925 204.242 378.416C205.074 378.885 205.948 379.12 206.866 379.12C207.804 379.12 208.679 378.885 209.49 378.416C210.3 377.947 210.951 377.264 211.442 376.368C211.954 375.451 212.21 374.384 212.21 373.168ZM60.923 414.928C61.4563 414.032 62.1603 413.339 63.035 412.848C63.931 412.336 64.987 412.08 66.203 412.08V415.856H65.275C63.8457 415.856 62.7577 416.219 62.011 416.944C61.2857 417.669 60.923 418.928 60.923 420.72V430H57.275V412.368H60.923V414.928ZM85.7163 420.752C85.7163 421.413 85.6736 422.011 85.5883 422.544H72.1163C72.2229 423.952 72.7456 425.083 73.6843 425.936C74.6229 426.789 75.7749 427.216 77.1403 427.216C79.1029 427.216 80.4896 426.395 81.3003 424.752H85.2362C84.7029 426.373 83.7323 427.707 82.3243 428.752C80.9376 429.776 79.2096 430.288 77.1403 430.288C75.4549 430.288 73.9403 429.915 72.5963 429.168C71.2736 428.4 70.2283 427.333 69.4603 425.968C68.7136 424.581 68.3403 422.981 68.3403 421.168C68.3403 419.355 68.7029 417.765 69.4283 416.4C70.1749 415.013 71.2096 413.947 72.5323 413.2C73.8763 412.453 75.4123 412.08 77.1403 412.08C78.8043 412.08 80.2869 412.443 81.5883 413.168C82.8896 413.893 83.9029 414.917 84.6283 416.24C85.3536 417.541 85.7163 419.045 85.7163 420.752ZM81.9083 419.6C81.8869 418.256 81.4069 417.179 80.4683 416.368C79.5296 415.557 78.3669 415.152 76.9803 415.152C75.7216 415.152 74.6443 415.557 73.7483 416.368C72.8523 417.157 72.3189 418.235 72.1483 419.6H81.9083ZM96.4103 412.08C97.7756 412.08 98.9809 412.357 100.026 412.912C101.093 413.445 101.925 414.117 102.522 414.928V412.368H106.202V430.288C106.202 431.909 105.861 433.349 105.178 434.608C104.496 435.888 103.504 436.891 102.202 437.616C100.922 438.341 99.3863 438.704 97.5943 438.704C95.2049 438.704 93.2209 438.139 91.6423 437.008C90.0636 435.899 89.1676 434.384 88.9543 432.464H92.5703C92.8476 433.381 93.4343 434.117 94.3303 434.672C95.2476 435.248 96.3356 435.536 97.5943 435.536C99.0663 435.536 100.25 435.088 101.146 434.192C102.064 433.296 102.522 431.995 102.522 430.288V427.344C101.904 428.176 101.061 428.88 99.9943 429.456C98.9489 430.011 97.7543 430.288 96.4103 430.288C94.8743 430.288 93.4663 429.904 92.1863 429.136C90.9276 428.347 89.9249 427.259 89.1783 425.872C88.4529 424.464 88.0903 422.875 88.0903 421.104C88.0903 419.333 88.4529 417.765 89.1783 416.4C89.9249 415.035 90.9276 413.979 92.1863 413.232C93.4663 412.464 94.8743 412.08 96.4103 412.08ZM102.522 421.168C102.522 419.952 102.266 418.896 101.754 418C101.264 417.104 100.613 416.421 99.8023 415.952C98.9916 415.483 98.1169 415.248 97.1783 415.248C96.2396 415.248 95.3649 415.483 94.5543 415.952C93.7436 416.4 93.0823 417.072 92.5703 417.968C92.0796 418.843 91.8343 419.888 91.8343 421.104C91.8343 422.32 92.0796 423.387 92.5703 424.304C93.0823 425.221 93.7436 425.925 94.5543 426.416C95.3863 426.885 96.2609 427.12 97.1783 427.12C98.1169 427.12 98.9916 426.885 99.8023 426.416C100.613 425.947 101.264 425.264 101.754 424.368C102.266 423.451 102.522 422.384 102.522 421.168ZM112.85 410.032C112.188 410.032 111.634 409.808 111.186 409.36C110.738 408.912 110.514 408.357 110.514 407.696C110.514 407.035 110.738 406.48 111.186 406.032C111.634 405.584 112.188 405.36 112.85 405.36C113.49 405.36 114.034 405.584 114.482 406.032C114.93 406.48 115.154 407.035 115.154 407.696C115.154 408.357 114.93 408.912 114.482 409.36C114.034 409.808 113.49 410.032 112.85 410.032ZM114.642 412.368V430H110.994V412.368H114.642ZM125.831 430.288C124.445 430.288 123.197 430.043 122.087 429.552C120.999 429.04 120.135 428.357 119.495 427.504C118.855 426.629 118.514 425.659 118.471 424.592H122.247C122.311 425.339 122.663 425.968 123.303 426.48C123.965 426.971 124.786 427.216 125.767 427.216C126.791 427.216 127.581 427.024 128.135 426.64C128.711 426.235 128.999 425.723 128.999 425.104C128.999 424.443 128.679 423.952 128.039 423.632C127.421 423.312 126.429 422.96 125.063 422.576C123.741 422.213 122.663 421.861 121.831 421.52C120.999 421.179 120.274 420.656 119.655 419.952C119.058 419.248 118.759 418.32 118.759 417.168C118.759 416.229 119.037 415.376 119.591 414.608C120.146 413.819 120.935 413.2 121.959 412.752C123.005 412.304 124.199 412.08 125.543 412.08C127.549 412.08 129.159 412.592 130.375 413.616C131.613 414.619 132.274 415.995 132.359 417.744H128.711C128.647 416.955 128.327 416.325 127.751 415.856C127.175 415.387 126.397 415.152 125.415 415.152C124.455 415.152 123.719 415.333 123.207 415.696C122.695 416.059 122.439 416.539 122.439 417.136C122.439 417.605 122.61 418 122.951 418.32C123.293 418.64 123.709 418.896 124.199 419.088C124.69 419.259 125.415 419.483 126.375 419.76C127.655 420.101 128.701 420.453 129.511 420.816C130.343 421.157 131.058 421.669 131.655 422.352C132.253 423.035 132.562 423.941 132.583 425.072C132.583 426.075 132.306 426.971 131.751 427.76C131.197 428.549 130.407 429.168 129.383 429.616C128.381 430.064 127.197 430.288 125.831 430.288ZM140.781 415.344V425.104C140.781 425.765 140.93 426.245 141.229 426.544C141.549 426.821 142.082 426.96 142.829 426.96H145.069V430H142.189C140.546 430 139.288 429.616 138.413 428.848C137.538 428.08 137.101 426.832 137.101 425.104V415.344H135.021V412.368H137.101V407.984H140.781V412.368H145.069V415.344H140.781ZM152.079 414.928C152.613 414.032 153.317 413.339 154.191 412.848C155.087 412.336 156.143 412.08 157.359 412.08V415.856H156.431C155.002 415.856 153.914 416.219 153.167 416.944C152.442 417.669 152.079 418.928 152.079 420.72V430H148.431V412.368H152.079V414.928ZM159.497 421.104C159.497 419.333 159.859 417.765 160.585 416.4C161.331 415.035 162.334 413.979 163.593 413.232C164.873 412.464 166.281 412.08 167.817 412.08C169.203 412.08 170.409 412.357 171.433 412.912C172.478 413.445 173.31 414.117 173.929 414.928V412.368H177.609V430H173.929V427.376C173.31 428.208 172.467 428.901 171.401 429.456C170.334 430.011 169.118 430.288 167.753 430.288C166.238 430.288 164.851 429.904 163.593 429.136C162.334 428.347 161.331 427.259 160.585 425.872C159.859 424.464 159.497 422.875 159.497 421.104ZM173.929 421.168C173.929 419.952 173.673 418.896 173.161 418C172.67 417.104 172.019 416.421 171.209 415.952C170.398 415.483 169.523 415.248 168.585 415.248C167.646 415.248 166.771 415.483 165.961 415.952C165.15 416.4 164.489 417.072 163.977 417.968C163.486 418.843 163.241 419.888 163.241 421.104C163.241 422.32 163.486 423.387 163.977 424.304C164.489 425.221 165.15 425.925 165.961 426.416C166.793 426.885 167.667 427.12 168.585 427.12C169.523 427.12 170.398 426.885 171.209 426.416C172.019 425.947 172.67 425.264 173.161 424.368C173.673 423.451 173.929 422.384 173.929 421.168ZM186.048 414.928C186.581 414.032 187.285 413.339 188.16 412.848C189.056 412.336 190.112 412.08 191.328 412.08V415.856H190.4C188.971 415.856 187.883 416.219 187.136 416.944C186.411 417.669 186.048 418.928 186.048 420.72V430H182.4V412.368H186.048V414.928ZM201.081 430.288C199.695 430.288 198.447 430.043 197.337 429.552C196.249 429.04 195.385 428.357 194.745 427.504C194.105 426.629 193.764 425.659 193.721 424.592H197.497C197.561 425.339 197.913 425.968 198.553 426.48C199.215 426.971 200.036 427.216 201.017 427.216C202.041 427.216 202.831 427.024 203.385 426.64C203.961 426.235 204.249 425.723 204.249 425.104C204.249 424.443 203.929 423.952 203.289 423.632C202.671 423.312 201.679 422.96 200.313 422.576C198.991 422.213 197.913 421.861 197.081 421.52C196.249 421.179 195.524 420.656 194.905 419.952C194.308 419.248 194.009 418.32 194.009 417.168C194.009 416.229 194.287 415.376 194.841 414.608C195.396 413.819 196.185 413.2 197.209 412.752C198.255 412.304 199.449 412.08 200.793 412.08C202.799 412.08 204.409 412.592 205.625 413.616C206.863 414.619 207.524 415.995 207.609 417.744H203.961C203.897 416.955 203.577 416.325 203.001 415.856C202.425 415.387 201.647 415.152 200.665 415.152C199.705 415.152 198.969 415.333 198.457 415.696C197.945 416.059 197.689 416.539 197.689 417.136C197.689 417.605 197.86 418 198.201 418.32C198.543 418.64 198.959 418.896 199.449 419.088C199.94 419.259 200.665 419.483 201.625 419.76C202.905 420.101 203.951 420.453 204.761 420.816C205.593 421.157 206.308 421.669 206.905 422.352C207.503 423.035 207.812 423.941 207.833 425.072C207.833 426.075 207.556 426.971 207.001 427.76C206.447 428.549 205.657 429.168 204.633 429.616C203.631 430.064 202.447 430.288 201.081 430.288ZM227.935 420.752C227.935 421.413 227.892 422.011 227.807 422.544H214.335C214.442 423.952 214.964 425.083 215.903 425.936C216.842 426.789 217.994 427.216 219.359 427.216C221.322 427.216 222.708 426.395 223.519 424.752H227.455C226.922 426.373 225.951 427.707 224.543 428.752C223.156 429.776 221.428 430.288 219.359 430.288C217.674 430.288 216.159 429.915 214.815 429.168C213.492 428.4 212.447 427.333 211.679 425.968C210.932 424.581 210.559 422.981 210.559 421.168C210.559 419.355 210.922 417.765 211.647 416.4C212.394 415.013 213.428 413.947 214.751 413.2C216.095 412.453 217.631 412.08 219.359 412.08C221.023 412.08 222.506 412.443 223.807 413.168C225.108 413.893 226.122 414.917 226.847 416.24C227.572 417.541 227.935 419.045 227.935 420.752ZM224.127 419.6C224.106 418.256 223.626 417.179 222.687 416.368C221.748 415.557 220.586 415.152 219.199 415.152C217.94 415.152 216.863 415.557 215.967 416.368C215.071 417.157 214.538 418.235 214.367 419.6H224.127Z" fill="#F98368"/>
<path d="M449.362 311.76V314.736H443.442V334H439.794V314.736H433.842V311.76H449.362ZM469.024 316.368V334H465.376V331.92C464.8 332.645 464.043 333.221 463.104 333.648C462.187 334.053 461.206 334.256 460.16 334.256C458.774 334.256 457.526 333.968 456.416 333.392C455.328 332.816 454.464 331.963 453.824 330.832C453.206 329.701 452.896 328.336 452.896 326.736V316.368H456.512V326.192C456.512 327.771 456.907 328.987 457.696 329.84C458.486 330.672 459.563 331.088 460.928 331.088C462.294 331.088 463.371 330.672 464.16 329.84C464.971 328.987 465.376 327.771 465.376 326.192V316.368H469.024ZM480.238 334.288C478.851 334.288 477.603 334.043 476.494 333.552C475.406 333.04 474.542 332.357 473.902 331.504C473.262 330.629 472.92 329.659 472.878 328.592H476.654C476.718 329.339 477.07 329.968 477.71 330.48C478.371 330.971 479.192 331.216 480.174 331.216C481.198 331.216 481.987 331.024 482.542 330.64C483.118 330.235 483.406 329.723 483.406 329.104C483.406 328.443 483.086 327.952 482.446 327.632C481.827 327.312 480.835 326.96 479.47 326.576C478.147 326.213 477.07 325.861 476.238 325.52C475.406 325.179 474.68 324.656 474.062 323.952C473.464 323.248 473.166 322.32 473.166 321.168C473.166 320.229 473.443 319.376 473.998 318.608C474.552 317.819 475.342 317.2 476.366 316.752C477.411 316.304 478.606 316.08 479.95 316.08C481.955 316.08 483.566 316.592 484.782 317.616C486.019 318.619 486.68 319.995 486.766 321.744H483.118C483.054 320.955 482.734 320.325 482.158 319.856C481.582 319.387 480.803 319.152 479.822 319.152C478.862 319.152 478.126 319.333 477.614 319.696C477.102 320.059 476.846 320.539 476.846 321.136C476.846 321.605 477.016 322 477.358 322.32C477.699 322.64 478.115 322.896 478.606 323.088C479.096 323.259 479.822 323.483 480.782 323.76C482.062 324.101 483.107 324.453 483.918 324.816C484.75 325.157 485.464 325.669 486.062 326.352C486.659 327.035 486.968 327.941 486.99 329.072C486.99 330.075 486.712 330.971 486.158 331.76C485.603 332.549 484.814 333.168 483.79 333.616C482.787 334.064 481.603 334.288 480.238 334.288ZM498.028 325.104C498.028 323.333 498.39 321.765 499.116 320.4C499.862 319.035 500.865 317.979 502.124 317.232C503.404 316.464 504.812 316.08 506.348 316.08C507.734 316.08 508.94 316.357 509.964 316.912C511.009 317.445 511.841 318.117 512.46 318.928V316.368H516.14V334H512.46V331.376C511.841 332.208 510.998 332.901 509.932 333.456C508.865 334.011 507.649 334.288 506.284 334.288C504.769 334.288 503.382 333.904 502.124 333.136C500.865 332.347 499.862 331.259 499.116 329.872C498.39 328.464 498.028 326.875 498.028 325.104ZM512.46 325.168C512.46 323.952 512.204 322.896 511.692 322C511.201 321.104 510.55 320.421 509.74 319.952C508.929 319.483 508.054 319.248 507.116 319.248C506.177 319.248 505.302 319.483 504.492 319.952C503.681 320.4 503.02 321.072 502.508 321.968C502.017 322.843 501.772 323.888 501.772 325.104C501.772 326.32 502.017 327.387 502.508 328.304C503.02 329.221 503.681 329.925 504.492 330.416C505.324 330.885 506.198 331.12 507.116 331.12C508.054 331.12 508.929 330.885 509.74 330.416C510.55 329.947 511.201 329.264 511.692 328.368C512.204 327.451 512.46 326.384 512.46 325.168ZM542.275 316.08C543.662 316.08 544.899 316.368 545.987 316.944C547.097 317.52 547.961 318.373 548.579 319.504C549.219 320.635 549.539 322 549.539 323.6V334H545.923V324.144C545.923 322.565 545.529 321.36 544.739 320.528C543.95 319.675 542.873 319.248 541.507 319.248C540.142 319.248 539.054 319.675 538.243 320.528C537.454 321.36 537.059 322.565 537.059 324.144V334H533.443V324.144C533.443 322.565 533.049 321.36 532.259 320.528C531.47 319.675 530.393 319.248 529.027 319.248C527.662 319.248 526.574 319.675 525.763 320.528C524.974 321.36 524.579 322.565 524.579 324.144V334H520.931V316.368H524.579V318.384C525.177 317.659 525.934 317.093 526.851 316.688C527.769 316.283 528.75 316.08 529.795 316.08C531.203 316.08 532.462 316.379 533.571 316.976C534.681 317.573 535.534 318.437 536.131 319.568C536.665 318.501 537.497 317.659 538.627 317.04C539.758 316.4 540.974 316.08 542.275 316.08ZM556.037 314.032C555.376 314.032 554.821 313.808 554.373 313.36C553.925 312.912 553.701 312.357 553.701 311.696C553.701 311.035 553.925 310.48 554.373 310.032C554.821 309.584 555.376 309.36 556.037 309.36C556.677 309.36 557.221 309.584 557.669 310.032C558.117 310.48 558.341 311.035 558.341 311.696C558.341 312.357 558.117 312.912 557.669 313.36C557.221 313.808 556.677 314.032 556.037 314.032ZM557.829 316.368V334H554.181V316.368H557.829ZM569.723 316.08C571.088 316.08 572.293 316.357 573.339 316.912C574.405 317.445 575.237 318.117 575.835 318.928V316.368H579.515V334.288C579.515 335.909 579.173 337.349 578.491 338.608C577.808 339.888 576.816 340.891 575.515 341.616C574.235 342.341 572.699 342.704 570.907 342.704C568.517 342.704 566.533 342.139 564.955 341.008C563.376 339.899 562.48 338.384 562.267 336.464H565.883C566.16 337.381 566.747 338.117 567.643 338.672C568.56 339.248 569.648 339.536 570.907 339.536C572.379 339.536 573.563 339.088 574.459 338.192C575.376 337.296 575.835 335.995 575.835 334.288V331.344C575.216 332.176 574.373 332.88 573.307 333.456C572.261 334.011 571.067 334.288 569.723 334.288C568.187 334.288 566.779 333.904 565.499 333.136C564.24 332.347 563.237 331.259 562.491 329.872C561.765 328.464 561.403 326.875 561.403 325.104C561.403 323.333 561.765 321.765 562.491 320.4C563.237 319.035 564.24 317.979 565.499 317.232C566.779 316.464 568.187 316.08 569.723 316.08ZM575.835 325.168C575.835 323.952 575.579 322.896 575.067 322C574.576 321.104 573.925 320.421 573.115 319.952C572.304 319.483 571.429 319.248 570.491 319.248C569.552 319.248 568.677 319.483 567.867 319.952C567.056 320.4 566.395 321.072 565.883 321.968C565.392 322.843 565.147 323.888 565.147 325.104C565.147 326.32 565.392 327.387 565.883 328.304C566.395 329.221 567.056 329.925 567.867 330.416C568.699 330.885 569.573 331.12 570.491 331.12C571.429 331.12 572.304 330.885 573.115 330.416C573.925 329.947 574.576 329.264 575.067 328.368C575.579 327.451 575.835 326.384 575.835 325.168ZM591.954 334.288C590.29 334.288 588.786 333.915 587.442 333.168C586.098 332.4 585.042 331.333 584.274 329.968C583.506 328.581 583.122 326.981 583.122 325.168C583.122 323.376 583.517 321.787 584.306 320.4C585.096 319.013 586.173 317.947 587.538 317.2C588.904 316.453 590.429 316.08 592.114 316.08C593.8 316.08 595.325 316.453 596.69 317.2C598.056 317.947 599.133 319.013 599.922 320.4C600.712 321.787 601.106 323.376 601.106 325.168C601.106 326.96 600.701 328.549 599.89 329.936C599.08 331.323 597.97 332.4 596.562 333.168C595.176 333.915 593.64 334.288 591.954 334.288ZM591.954 331.12C592.893 331.12 593.768 330.896 594.578 330.448C595.41 330 596.082 329.328 596.594 328.432C597.106 327.536 597.362 326.448 597.362 325.168C597.362 323.888 597.117 322.811 596.626 321.936C596.136 321.04 595.485 320.368 594.674 319.92C593.864 319.472 592.989 319.248 592.05 319.248C591.112 319.248 590.237 319.472 589.426 319.92C588.637 320.368 588.008 321.04 587.538 321.936C587.069 322.811 586.834 323.888 586.834 325.168C586.834 327.067 587.314 328.539 588.274 329.584C589.256 330.608 590.482 331.12 591.954 331.12ZM611.113 334.288C609.726 334.288 608.478 334.043 607.369 333.552C606.281 333.04 605.417 332.357 604.777 331.504C604.137 330.629 603.795 329.659 603.753 328.592H607.529C607.593 329.339 607.945 329.968 608.585 330.48C609.246 330.971 610.067 331.216 611.049 331.216C612.073 331.216 612.862 331.024 613.417 330.64C613.993 330.235 614.281 329.723 614.281 329.104C614.281 328.443 613.961 327.952 613.321 327.632C612.702 327.312 611.71 326.96 610.345 326.576C609.022 326.213 607.945 325.861 607.113 325.52C606.281 325.179 605.555 324.656 604.937 323.952C604.339 323.248 604.041 322.32 604.041 321.168C604.041 320.229 604.318 319.376 604.873 318.608C605.427 317.819 606.217 317.2 607.241 316.752C608.286 316.304 609.481 316.08 610.825 316.08C612.83 316.08 614.441 316.592 615.657 317.616C616.894 318.619 617.555 319.995 617.641 321.744H613.993C613.929 320.955 613.609 320.325 613.033 319.856C612.457 319.387 611.678 319.152 610.697 319.152C609.737 319.152 609.001 319.333 608.489 319.696C607.977 320.059 607.721 320.539 607.721 321.136C607.721 321.605 607.891 322 608.233 322.32C608.574 322.64 608.99 322.896 609.481 323.088C609.971 323.259 610.697 323.483 611.657 323.76C612.937 324.101 613.982 324.453 614.793 324.816C615.625 325.157 616.339 325.669 616.937 326.352C617.534 327.035 617.843 327.941 617.865 329.072C617.865 330.075 617.587 330.971 617.033 331.76C616.478 332.549 615.689 333.168 614.665 333.616C613.662 334.064 612.478 334.288 611.113 334.288ZM383.043 373.104C383.043 371.333 383.406 369.765 384.131 368.4C384.878 367.035 385.881 365.979 387.139 365.232C388.419 364.464 389.838 364.08 391.395 364.08C392.547 364.08 393.678 364.336 394.787 364.848C395.918 365.339 396.814 366 397.475 366.832V358.32H401.155V382H397.475V379.344C396.878 380.197 396.046 380.901 394.979 381.456C393.934 382.011 392.729 382.288 391.363 382.288C389.827 382.288 388.419 381.904 387.139 381.136C385.881 380.347 384.878 379.259 384.131 377.872C383.406 376.464 383.043 374.875 383.043 373.104ZM397.475 373.168C397.475 371.952 397.219 370.896 396.707 370C396.217 369.104 395.566 368.421 394.755 367.952C393.945 367.483 393.07 367.248 392.131 367.248C391.193 367.248 390.318 367.483 389.507 367.952C388.697 368.4 388.035 369.072 387.523 369.968C387.033 370.843 386.787 371.888 386.787 373.104C386.787 374.32 387.033 375.387 387.523 376.304C388.035 377.221 388.697 377.925 389.507 378.416C390.339 378.885 391.214 379.12 392.131 379.12C393.07 379.12 393.945 378.885 394.755 378.416C395.566 377.947 396.217 377.264 396.707 376.368C397.219 375.451 397.475 374.384 397.475 373.168ZM422.107 372.752C422.107 373.413 422.064 374.011 421.979 374.544H408.507C408.614 375.952 409.136 377.083 410.075 377.936C411.014 378.789 412.166 379.216 413.531 379.216C415.494 379.216 416.88 378.395 417.691 376.752H421.627C421.094 378.373 420.123 379.707 418.715 380.752C417.328 381.776 415.6 382.288 413.531 382.288C411.846 382.288 410.331 381.915 408.987 381.168C407.664 380.4 406.619 379.333 405.851 377.968C405.104 376.581 404.731 374.981 404.731 373.168C404.731 371.355 405.094 369.765 405.819 368.4C406.566 367.013 407.6 365.947 408.923 365.2C410.267 364.453 411.803 364.08 413.531 364.08C415.195 364.08 416.678 364.443 417.979 365.168C419.28 365.893 420.294 366.917 421.019 368.24C421.744 369.541 422.107 371.045 422.107 372.752ZM418.299 371.6C418.278 370.256 417.798 369.179 416.859 368.368C415.92 367.557 414.758 367.152 413.371 367.152C412.112 367.152 411.035 367.557 410.139 368.368C409.243 369.157 408.71 370.235 408.539 371.6H418.299ZM432.097 382.288C430.71 382.288 429.462 382.043 428.353 381.552C427.265 381.04 426.401 380.357 425.761 379.504C425.121 378.629 424.78 377.659 424.737 376.592H428.513C428.577 377.339 428.929 377.968 429.569 378.48C430.23 378.971 431.052 379.216 432.033 379.216C433.057 379.216 433.846 379.024 434.401 378.64C434.977 378.235 435.265 377.723 435.265 377.104C435.265 376.443 434.945 375.952 434.305 375.632C433.686 375.312 432.694 374.96 431.329 374.576C430.006 374.213 428.929 373.861 428.097 373.52C427.265 373.179 426.54 372.656 425.921 371.952C425.324 371.248 425.025 370.32 425.025 369.168C425.025 368.229 425.302 367.376 425.857 366.608C426.412 365.819 427.201 365.2 428.225 364.752C429.27 364.304 430.465 364.08 431.809 364.08C433.814 364.08 435.425 364.592 436.641 365.616C437.878 366.619 438.54 367.995 438.625 369.744H434.977C434.913 368.955 434.593 368.325 434.017 367.856C433.441 367.387 432.662 367.152 431.681 367.152C430.721 367.152 429.985 367.333 429.473 367.696C428.961 368.059 428.705 368.539 428.705 369.136C428.705 369.605 428.876 370 429.217 370.32C429.558 370.64 429.974 370.896 430.465 371.088C430.956 371.259 431.681 371.483 432.641 371.76C433.921 372.101 434.966 372.453 435.777 372.816C436.609 373.157 437.324 373.669 437.921 374.352C438.518 375.035 438.828 375.941 438.849 377.072C438.849 378.075 438.572 378.971 438.017 379.76C437.462 380.549 436.673 381.168 435.649 381.616C434.646 382.064 433.462 382.288 432.097 382.288ZM441.575 373.168C441.575 371.355 441.937 369.765 442.663 368.4C443.409 367.013 444.433 365.947 445.735 365.2C447.036 364.453 448.529 364.08 450.215 364.08C452.348 364.08 454.108 364.592 455.495 365.616C456.903 366.619 457.852 368.059 458.343 369.936H454.407C454.087 369.061 453.575 368.379 452.871 367.888C452.167 367.397 451.281 367.152 450.215 367.152C448.721 367.152 447.527 367.685 446.631 368.752C445.756 369.797 445.319 371.269 445.319 373.168C445.319 375.067 445.756 376.549 446.631 377.616C447.527 378.683 448.721 379.216 450.215 379.216C452.327 379.216 453.724 378.288 454.407 376.432H458.343C457.831 378.224 456.871 379.653 455.463 380.72C454.055 381.765 452.305 382.288 450.215 382.288C448.529 382.288 447.036 381.915 445.735 381.168C444.433 380.4 443.409 379.333 442.663 377.968C441.937 376.581 441.575 374.981 441.575 373.168ZM460.762 373.104C460.762 371.333 461.125 369.765 461.85 368.4C462.597 367.035 463.599 365.979 464.858 365.232C466.138 364.464 467.546 364.08 469.082 364.08C470.469 364.08 471.674 364.357 472.698 364.912C473.743 365.445 474.575 366.117 475.194 366.928V364.368H478.874V382H475.194V379.376C474.575 380.208 473.733 380.901 472.666 381.456C471.599 382.011 470.383 382.288 469.018 382.288C467.503 382.288 466.117 381.904 464.858 381.136C463.599 380.347 462.597 379.259 461.85 377.872C461.125 376.464 460.762 374.875 460.762 373.104ZM475.194 373.168C475.194 371.952 474.938 370.896 474.426 370C473.935 369.104 473.285 368.421 472.474 367.952C471.663 367.483 470.789 367.248 469.85 367.248C468.911 367.248 468.037 367.483 467.226 367.952C466.415 368.4 465.754 369.072 465.242 369.968C464.751 370.843 464.506 371.888 464.506 373.104C464.506 374.32 464.751 375.387 465.242 376.304C465.754 377.221 466.415 377.925 467.226 378.416C468.058 378.885 468.933 379.12 469.85 379.12C470.789 379.12 471.663 378.885 472.474 378.416C473.285 377.947 473.935 377.264 474.426 376.368C474.938 375.451 475.194 374.384 475.194 373.168ZM487.314 366.928C487.847 366.032 488.551 365.339 489.426 364.848C490.322 364.336 491.378 364.08 492.594 364.08V367.856H491.666C490.236 367.856 489.148 368.219 488.402 368.944C487.676 369.669 487.314 370.928 487.314 372.72V382H483.666V364.368H487.314V366.928ZM503.051 364.08C504.416 364.08 505.622 364.357 506.667 364.912C507.734 365.445 508.566 366.117 509.163 366.928V364.368H512.843V382.288C512.843 383.909 512.502 385.349 511.819 386.608C511.136 387.888 510.144 388.891 508.843 389.616C507.563 390.341 506.027 390.704 504.235 390.704C501.846 390.704 499.862 390.139 498.283 389.008C496.704 387.899 495.808 386.384 495.595 384.464H499.211C499.488 385.381 500.075 386.117 500.971 386.672C501.888 387.248 502.976 387.536 504.235 387.536C505.707 387.536 506.891 387.088 507.787 386.192C508.704 385.296 509.163 383.995 509.163 382.288V379.344C508.544 380.176 507.702 380.88 506.635 381.456C505.59 382.011 504.395 382.288 503.051 382.288C501.515 382.288 500.107 381.904 498.827 381.136C497.568 380.347 496.566 379.259 495.819 377.872C495.094 376.464 494.731 374.875 494.731 373.104C494.731 371.333 495.094 369.765 495.819 368.4C496.566 367.035 497.568 365.979 498.827 365.232C500.107 364.464 501.515 364.08 503.051 364.08ZM509.163 373.168C509.163 371.952 508.907 370.896 508.395 370C507.904 369.104 507.254 368.421 506.443 367.952C505.632 367.483 504.758 367.248 503.819 367.248C502.88 367.248 502.006 367.483 501.195 367.952C500.384 368.4 499.723 369.072 499.211 369.968C498.72 370.843 498.475 371.888 498.475 373.104C498.475 374.32 498.72 375.387 499.211 376.304C499.723 377.221 500.384 377.925 501.195 378.416C502.027 378.885 502.902 379.12 503.819 379.12C504.758 379.12 505.632 378.885 506.443 378.416C507.254 377.947 507.904 377.264 508.395 376.368C508.907 375.451 509.163 374.384 509.163 373.168ZM516.418 373.104C516.418 371.333 516.781 369.765 517.506 368.4C518.253 367.035 519.256 365.979 520.514 365.232C521.794 364.464 523.202 364.08 524.738 364.08C526.125 364.08 527.33 364.357 528.354 364.912C529.4 365.445 530.232 366.117 530.85 366.928V364.368H534.53V382H530.85V379.376C530.232 380.208 529.389 380.901 528.322 381.456C527.256 382.011 526.04 382.288 524.674 382.288C523.16 382.288 521.773 381.904 520.514 381.136C519.256 380.347 518.253 379.259 517.506 377.872C516.781 376.464 516.418 374.875 516.418 373.104ZM530.85 373.168C530.85 371.952 530.594 370.896 530.082 370C529.592 369.104 528.941 368.421 528.13 367.952C527.32 367.483 526.445 367.248 525.506 367.248C524.568 367.248 523.693 367.483 522.882 367.952C522.072 368.4 521.41 369.072 520.898 369.968C520.408 370.843 520.162 371.888 520.162 373.104C520.162 374.32 520.408 375.387 520.898 376.304C521.41 377.221 522.072 377.925 522.882 378.416C523.714 378.885 524.589 379.12 525.506 379.12C526.445 379.12 527.32 378.885 528.13 378.416C528.941 377.947 529.592 377.264 530.082 376.368C530.594 375.451 530.85 374.384 530.85 373.168ZM548.218 364.08C549.605 364.08 550.842 364.368 551.93 364.944C553.039 365.52 553.903 366.373 554.522 367.504C555.141 368.635 555.45 370 555.45 371.6V382H551.834V372.144C551.834 370.565 551.439 369.36 550.65 368.528C549.861 367.675 548.783 367.248 547.418 367.248C546.053 367.248 544.965 367.675 544.154 368.528C543.365 369.36 542.97 370.565 542.97 372.144V382H539.322V364.368H542.97V366.384C543.567 365.659 544.325 365.093 545.242 364.688C546.181 364.283 547.173 364.08 548.218 364.08ZM572.064 358.32V382H568.416V358.32H572.064ZM575.637 373.104C575.637 371.333 576 369.765 576.725 368.4C577.472 367.035 578.474 365.979 579.733 365.232C581.013 364.464 582.421 364.08 583.957 364.08C585.344 364.08 586.549 364.357 587.573 364.912C588.618 365.445 589.45 366.117 590.069 366.928V364.368H593.749V382H590.069V379.376C589.45 380.208 588.608 380.901 587.541 381.456C586.474 382.011 585.258 382.288 583.893 382.288C582.378 382.288 580.992 381.904 579.733 381.136C578.474 380.347 577.472 379.259 576.725 377.872C576 376.464 575.637 374.875 575.637 373.104ZM590.069 373.168C590.069 371.952 589.813 370.896 589.301 370C588.81 369.104 588.16 368.421 587.349 367.952C586.538 367.483 585.664 367.248 584.725 367.248C583.786 367.248 582.912 367.483 582.101 367.952C581.29 368.4 580.629 369.072 580.117 369.968C579.626 370.843 579.381 371.888 579.381 373.104C579.381 374.32 579.626 375.387 580.117 376.304C580.629 377.221 581.29 377.925 582.101 378.416C582.933 378.885 583.808 379.12 584.725 379.12C585.664 379.12 586.538 378.885 587.349 378.416C588.16 377.947 588.81 377.264 589.301 376.368C589.813 375.451 590.069 374.384 590.069 373.168ZM620.261 377.456H610.949L609.349 382H605.541L613.509 359.728H617.733L625.701 382H621.861L620.261 377.456ZM619.237 374.48L615.621 364.144L611.973 374.48H619.237ZM632.814 366.96C633.432 366.149 634.275 365.467 635.342 364.912C636.408 364.357 637.614 364.08 638.958 364.08C640.494 364.08 641.891 364.464 643.15 365.232C644.43 365.979 645.432 367.035 646.158 368.4C646.883 369.765 647.246 371.333 647.246 373.104C647.246 374.875 646.883 376.464 646.158 377.872C645.432 379.259 644.43 380.347 643.15 381.136C641.891 381.904 640.494 382.288 638.958 382.288C637.614 382.288 636.419 382.021 635.374 381.488C634.328 380.933 633.475 380.251 632.814 379.44V390.384H629.166V364.368H632.814V366.96ZM643.534 373.104C643.534 371.888 643.278 370.843 642.766 369.968C642.275 369.072 641.614 368.4 640.782 367.952C639.971 367.483 639.096 367.248 638.158 367.248C637.24 367.248 636.366 367.483 635.534 367.952C634.723 368.421 634.062 369.104 633.55 370C633.059 370.896 632.814 371.952 632.814 373.168C632.814 374.384 633.059 375.451 633.55 376.368C634.062 377.264 634.723 377.947 635.534 378.416C636.366 378.885 637.24 379.12 638.158 379.12C639.096 379.12 639.971 378.885 640.782 378.416C641.614 377.925 642.275 377.221 642.766 376.304C643.278 375.387 643.534 374.32 643.534 373.104ZM654.501 366.96C655.12 366.149 655.962 365.467 657.029 364.912C658.096 364.357 659.301 364.08 660.645 364.08C662.181 364.08 663.578 364.464 664.837 365.232C666.117 365.979 667.12 367.035 667.845 368.4C668.57 369.765 668.933 371.333 668.933 373.104C668.933 374.875 668.57 376.464 667.845 377.872C667.12 379.259 666.117 380.347 664.837 381.136C663.578 381.904 662.181 382.288 660.645 382.288C659.301 382.288 658.106 382.021 657.061 381.488C656.016 380.933 655.162 380.251 654.501 379.44V390.384H650.853V364.368H654.501V366.96ZM665.221 373.104C665.221 371.888 664.965 370.843 664.453 369.968C663.962 369.072 663.301 368.4 662.469 367.952C661.658 367.483 660.784 367.248 659.845 367.248C658.928 367.248 658.053 367.483 657.221 367.952C656.41 368.421 655.749 369.104 655.237 370C654.746 370.896 654.501 371.952 654.501 373.168C654.501 374.384 654.746 375.451 655.237 376.368C655.749 377.264 656.41 377.947 657.221 378.416C658.053 378.885 658.928 379.12 659.845 379.12C660.784 379.12 661.658 378.885 662.469 378.416C663.301 377.925 663.962 377.221 664.453 376.304C664.965 375.387 665.221 374.32 665.221 373.104Z" fill="#F98368"/>
<path d="M788.893 311.76V314.736H782.973V334H779.325V314.736H773.373V311.76H788.893ZM808.556 316.368V334H804.908V331.92C804.332 332.645 803.574 333.221 802.636 333.648C801.718 334.053 800.737 334.256 799.692 334.256C798.305 334.256 797.057 333.968 795.948 333.392C794.86 332.816 793.996 331.963 793.356 330.832C792.737 329.701 792.428 328.336 792.428 326.736V316.368H796.044V326.192C796.044 327.771 796.438 328.987 797.228 329.84C798.017 330.672 799.094 331.088 800.46 331.088C801.825 331.088 802.902 330.672 803.692 329.84C804.502 328.987 804.908 327.771 804.908 326.192V316.368H808.556ZM837.553 316.368L826.737 342.288H822.961L826.545 333.712L819.601 316.368H823.665L828.625 329.808L833.777 316.368H837.553ZM852.875 319.344V329.104C852.875 329.765 853.024 330.245 853.323 330.544C853.643 330.821 854.176 330.96 854.923 330.96H857.163V334H854.283C852.64 334 851.381 333.616 850.507 332.848C849.632 332.08 849.195 330.832 849.195 329.104V319.344H847.115V316.368H849.195V311.984H852.875V316.368H857.163V319.344H852.875ZM876.493 316.368V334H872.845V331.92C872.269 332.645 871.512 333.221 870.573 333.648C869.656 334.053 868.674 334.256 867.629 334.256C866.242 334.256 864.994 333.968 863.885 333.392C862.797 332.816 861.933 331.963 861.293 330.832C860.674 329.701 860.365 328.336 860.365 326.736V316.368H863.981V326.192C863.981 327.771 864.376 328.987 865.165 329.84C865.954 330.672 867.032 331.088 868.397 331.088C869.762 331.088 870.84 330.672 871.629 329.84C872.44 328.987 872.845 327.771 872.845 326.192V316.368H876.493ZM887.706 334.288C886.32 334.288 885.072 334.043 883.962 333.552C882.874 333.04 882.01 332.357 881.37 331.504C880.73 330.629 880.389 329.659 880.346 328.592H884.122C884.186 329.339 884.538 329.968 885.178 330.48C885.84 330.971 886.661 331.216 887.642 331.216C888.666 331.216 889.456 331.024 890.01 330.64C890.586 330.235 890.874 329.723 890.874 329.104C890.874 328.443 890.554 327.952 889.914 327.632C889.296 327.312 888.304 326.96 886.938 326.576C885.616 326.213 884.538 325.861 883.706 325.52C882.874 325.179 882.149 324.656 881.53 323.952C880.933 323.248 880.634 322.32 880.634 321.168C880.634 320.229 880.912 319.376 881.466 318.608C882.021 317.819 882.81 317.2 883.834 316.752C884.88 316.304 886.074 316.08 887.418 316.08C889.424 316.08 891.034 316.592 892.25 317.616C893.488 318.619 894.149 319.995 894.234 321.744H890.586C890.522 320.955 890.202 320.325 889.626 319.856C889.05 319.387 888.272 319.152 887.29 319.152C886.33 319.152 885.594 319.333 885.082 319.696C884.57 320.059 884.314 320.539 884.314 321.136C884.314 321.605 884.485 322 884.826 322.32C885.168 322.64 885.584 322.896 886.074 323.088C886.565 323.259 887.29 323.483 888.25 323.76C889.53 324.101 890.576 324.453 891.386 324.816C892.218 325.157 892.933 325.669 893.53 326.352C894.128 327.035 894.437 327.941 894.458 329.072C894.458 330.075 894.181 330.971 893.626 331.76C893.072 332.549 892.282 333.168 891.258 333.616C890.256 334.064 889.072 334.288 887.706 334.288ZM905.497 325.104C905.497 323.333 905.859 321.765 906.585 320.4C907.331 319.035 908.334 317.979 909.593 317.232C910.873 316.464 912.281 316.08 913.817 316.08C915.203 316.08 916.409 316.357 917.433 316.912C918.478 317.445 919.31 318.117 919.929 318.928V316.368H923.609V334H919.929V331.376C919.31 332.208 918.467 332.901 917.401 333.456C916.334 334.011 915.118 334.288 913.753 334.288C912.238 334.288 910.851 333.904 909.593 333.136C908.334 332.347 907.331 331.259 906.585 329.872C905.859 328.464 905.497 326.875 905.497 325.104ZM919.929 325.168C919.929 323.952 919.673 322.896 919.161 322C918.67 321.104 918.019 320.421 917.209 319.952C916.398 319.483 915.523 319.248 914.585 319.248C913.646 319.248 912.771 319.483 911.961 319.952C911.15 320.4 910.489 321.072 909.977 321.968C909.486 322.843 909.241 323.888 909.241 325.104C909.241 326.32 909.486 327.387 909.977 328.304C910.489 329.221 911.15 329.925 911.961 330.416C912.793 330.885 913.667 331.12 914.585 331.12C915.523 331.12 916.398 330.885 917.209 330.416C918.019 329.947 918.67 329.264 919.161 328.368C919.673 327.451 919.929 326.384 919.929 325.168ZM949.744 316.08C951.131 316.08 952.368 316.368 953.456 316.944C954.565 317.52 955.429 318.373 956.048 319.504C956.688 320.635 957.008 322 957.008 323.6V334H953.392V324.144C953.392 322.565 952.997 321.36 952.208 320.528C951.419 319.675 950.341 319.248 948.976 319.248C947.611 319.248 946.523 319.675 945.712 320.528C944.923 321.36 944.528 322.565 944.528 324.144V334H940.912V324.144C940.912 322.565 940.517 321.36 939.728 320.528C938.939 319.675 937.861 319.248 936.496 319.248C935.131 319.248 934.043 319.675 933.232 320.528C932.443 321.36 932.048 322.565 932.048 324.144V334H928.4V316.368H932.048V318.384C932.645 317.659 933.403 317.093 934.32 316.688C935.237 316.283 936.219 316.08 937.264 316.08C938.672 316.08 939.931 316.379 941.04 316.976C942.149 317.573 943.003 318.437 943.6 319.568C944.133 318.501 944.965 317.659 946.096 317.04C947.227 316.4 948.443 316.08 949.744 316.08ZM963.506 314.032C962.845 314.032 962.29 313.808 961.842 313.36C961.394 312.912 961.17 312.357 961.17 311.696C961.17 311.035 961.394 310.48 961.842 310.032C962.29 309.584 962.845 309.36 963.506 309.36C964.146 309.36 964.69 309.584 965.138 310.032C965.586 310.48 965.81 311.035 965.81 311.696C965.81 312.357 965.586 312.912 965.138 313.36C964.69 313.808 964.146 314.032 963.506 314.032ZM965.298 316.368V334H961.65V316.368H965.298ZM977.192 316.08C978.557 316.08 979.762 316.357 980.808 316.912C981.874 317.445 982.706 318.117 983.304 318.928V316.368H986.984V334.288C986.984 335.909 986.642 337.349 985.96 338.608C985.277 339.888 984.285 340.891 982.984 341.616C981.704 342.341 980.168 342.704 978.376 342.704C975.986 342.704 974.002 342.139 972.424 341.008C970.845 339.899 969.949 338.384 969.736 336.464H973.352C973.629 337.381 974.216 338.117 975.112 338.672C976.029 339.248 977.117 339.536 978.376 339.536C979.848 339.536 981.032 339.088 981.928 338.192C982.845 337.296 983.304 335.995 983.304 334.288V331.344C982.685 332.176 981.842 332.88 980.776 333.456C979.73 334.011 978.536 334.288 977.192 334.288C975.656 334.288 974.248 333.904 972.968 333.136C971.709 332.347 970.706 331.259 969.96 329.872C969.234 328.464 968.872 326.875 968.872 325.104C968.872 323.333 969.234 321.765 969.96 320.4C970.706 319.035 971.709 317.979 972.968 317.232C974.248 316.464 975.656 316.08 977.192 316.08ZM983.304 325.168C983.304 323.952 983.048 322.896 982.536 322C982.045 321.104 981.394 320.421 980.584 319.952C979.773 319.483 978.898 319.248 977.96 319.248C977.021 319.248 976.146 319.483 975.336 319.952C974.525 320.4 973.864 321.072 973.352 321.968C972.861 322.843 972.616 323.888 972.616 325.104C972.616 326.32 972.861 327.387 973.352 328.304C973.864 329.221 974.525 329.925 975.336 330.416C976.168 330.885 977.042 331.12 977.96 331.12C978.898 331.12 979.773 330.885 980.584 330.416C981.394 329.947 982.045 329.264 982.536 328.368C983.048 327.451 983.304 326.384 983.304 325.168ZM999.423 334.288C997.759 334.288 996.255 333.915 994.911 333.168C993.567 332.4 992.511 331.333 991.743 329.968C990.975 328.581 990.591 326.981 990.591 325.168C990.591 323.376 990.986 321.787 991.775 320.4C992.564 319.013 993.642 317.947 995.007 317.2C996.372 316.453 997.898 316.08 999.583 316.08C1001.27 316.08 1002.79 316.453 1004.16 317.2C1005.52 317.947 1006.6 319.013 1007.39 320.4C1008.18 321.787 1008.58 323.376 1008.58 325.168C1008.58 326.96 1008.17 328.549 1007.36 329.936C1006.55 331.323 1005.44 332.4 1004.03 333.168C1002.64 333.915 1001.11 334.288 999.423 334.288ZM999.423 331.12C1000.36 331.12 1001.24 330.896 1002.05 330.448C1002.88 330 1003.55 329.328 1004.06 328.432C1004.58 327.536 1004.83 326.448 1004.83 325.168C1004.83 323.888 1004.59 322.811 1004.1 321.936C1003.6 321.04 1002.95 320.368 1002.14 319.92C1001.33 319.472 1000.46 319.248 999.519 319.248C998.58 319.248 997.706 319.472 996.895 319.92C996.106 320.368 995.476 321.04 995.007 321.936C994.538 322.811 994.303 323.888 994.303 325.168C994.303 327.067 994.783 328.539 995.743 329.584C996.724 330.608 997.951 331.12 999.423 331.12ZM1018.58 334.288C1017.19 334.288 1015.95 334.043 1014.84 333.552C1013.75 333.04 1012.89 332.357 1012.25 331.504C1011.61 330.629 1011.26 329.659 1011.22 328.592H1015C1015.06 329.339 1015.41 329.968 1016.05 330.48C1016.71 330.971 1017.54 331.216 1018.52 331.216C1019.54 331.216 1020.33 331.024 1020.89 330.64C1021.46 330.235 1021.75 329.723 1021.75 329.104C1021.75 328.443 1021.43 327.952 1020.79 327.632C1020.17 327.312 1019.18 326.96 1017.81 326.576C1016.49 326.213 1015.41 325.861 1014.58 325.52C1013.75 325.179 1013.02 324.656 1012.41 323.952C1011.81 323.248 1011.51 322.32 1011.51 321.168C1011.51 320.229 1011.79 319.376 1012.34 318.608C1012.9 317.819 1013.69 317.2 1014.71 316.752C1015.75 316.304 1016.95 316.08 1018.29 316.08C1020.3 316.08 1021.91 316.592 1023.13 317.616C1024.36 318.619 1025.02 319.995 1025.11 321.744H1021.46C1021.4 320.955 1021.08 320.325 1020.5 319.856C1019.93 319.387 1019.15 319.152 1018.17 319.152C1017.21 319.152 1016.47 319.333 1015.96 319.696C1015.45 320.059 1015.19 320.539 1015.19 321.136C1015.19 321.605 1015.36 322 1015.7 322.32C1016.04 322.64 1016.46 322.896 1016.95 323.088C1017.44 323.259 1018.17 323.483 1019.13 323.76C1020.41 324.101 1021.45 324.453 1022.26 324.816C1023.09 325.157 1023.81 325.669 1024.41 326.352C1025 327.035 1025.31 327.941 1025.33 329.072C1025.33 330.075 1025.06 330.971 1024.5 331.76C1023.95 332.549 1023.16 333.168 1022.13 333.616C1021.13 334.064 1019.95 334.288 1018.58 334.288ZM879.159 382.288C877.773 382.288 876.525 382.043 875.415 381.552C874.327 381.04 873.463 380.357 872.823 379.504C872.183 378.629 871.842 377.659 871.799 376.592H875.575C875.639 377.339 875.991 377.968 876.631 378.48C877.293 378.971 878.114 379.216 879.095 379.216C880.119 379.216 880.909 379.024 881.463 378.64C882.039 378.235 882.327 377.723 882.327 377.104C882.327 376.443 882.007 375.952 881.367 375.632C880.749 375.312 879.757 374.96 878.391 374.576C877.069 374.213 875.991 373.861 875.159 373.52C874.327 373.179 873.602 372.656 872.983 371.952C872.386 371.248 872.087 370.32 872.087 369.168C872.087 368.229 872.365 367.376 872.919 366.608C873.474 365.819 874.263 365.2 875.287 364.752C876.333 364.304 877.527 364.08 878.871 364.08C880.877 364.08 882.487 364.592 883.703 365.616C884.941 366.619 885.602 367.995 885.687 369.744H882.039C881.975 368.955 881.655 368.325 881.079 367.856C880.503 367.387 879.725 367.152 878.743 367.152C877.783 367.152 877.047 367.333 876.535 367.696C876.023 368.059 875.767 368.539 875.767 369.136C875.767 369.605 875.938 370 876.279 370.32C876.621 370.64 877.037 370.896 877.527 371.088C878.018 371.259 878.743 371.483 879.703 371.76C880.983 372.101 882.029 372.453 882.839 372.816C883.671 373.157 884.386 373.669 884.983 374.352C885.581 375.035 885.89 375.941 885.911 377.072C885.911 378.075 885.634 378.971 885.079 379.76C884.525 380.549 883.735 381.168 882.711 381.616C881.709 382.064 880.525 382.288 879.159 382.288ZM897.501 382.288C895.837 382.288 894.333 381.915 892.989 381.168C891.645 380.4 890.589 379.333 889.821 377.968C889.053 376.581 888.669 374.981 888.669 373.168C888.669 371.376 889.064 369.787 889.853 368.4C890.642 367.013 891.72 365.947 893.085 365.2C894.45 364.453 895.976 364.08 897.661 364.08C899.346 364.08 900.872 364.453 902.237 365.2C903.602 365.947 904.68 367.013 905.469 368.4C906.258 369.787 906.653 371.376 906.653 373.168C906.653 374.96 906.248 376.549 905.437 377.936C904.626 379.323 903.517 380.4 902.109 381.168C900.722 381.915 899.186 382.288 897.501 382.288ZM897.501 379.12C898.44 379.12 899.314 378.896 900.125 378.448C900.957 378 901.629 377.328 902.141 376.432C902.653 375.536 902.909 374.448 902.909 373.168C902.909 371.888 902.664 370.811 902.173 369.936C901.682 369.04 901.032 368.368 900.221 367.92C899.41 367.472 898.536 367.248 897.597 367.248C896.658 367.248 895.784 367.472 894.973 367.92C894.184 368.368 893.554 369.04 893.085 369.936C892.616 370.811 892.381 371.888 892.381 373.168C892.381 375.067 892.861 376.539 893.821 377.584C894.802 378.608 896.029 379.12 897.501 379.12ZM919.155 364.08C920.542 364.08 921.779 364.368 922.867 364.944C923.977 365.52 924.841 366.373 925.459 367.504C926.078 368.635 926.387 370 926.387 371.6V382H922.771V372.144C922.771 370.565 922.377 369.36 921.587 368.528C920.798 367.675 919.721 367.248 918.355 367.248C916.99 367.248 915.902 367.675 915.091 368.528C914.302 369.36 913.907 370.565 913.907 372.144V382H910.259V364.368H913.907V366.384C914.505 365.659 915.262 365.093 916.179 364.688C917.118 364.283 918.11 364.08 919.155 364.08ZM773.017 414.928C773.55 414.032 774.254 413.339 775.129 412.848C776.025 412.336 777.081 412.08 778.297 412.08V415.856H777.369C775.939 415.856 774.851 416.219 774.105 416.944C773.379 417.669 773.017 418.928 773.017 420.72V430H769.369V412.368H773.017V414.928ZM797.81 420.752C797.81 421.413 797.767 422.011 797.682 422.544H784.21C784.317 423.952 784.839 425.083 785.778 425.936C786.717 426.789 787.869 427.216 789.234 427.216C791.197 427.216 792.583 426.395 793.394 424.752H797.33C796.797 426.373 795.826 427.707 794.418 428.752C793.031 429.776 791.303 430.288 789.234 430.288C787.549 430.288 786.034 429.915 784.69 429.168C783.367 428.4 782.322 427.333 781.554 425.968C780.807 424.581 780.434 422.981 780.434 421.168C780.434 419.355 780.797 417.765 781.522 416.4C782.269 415.013 783.303 413.947 784.626 413.2C785.97 412.453 787.506 412.08 789.234 412.08C790.898 412.08 792.381 412.443 793.682 413.168C794.983 413.893 795.997 414.917 796.722 416.24C797.447 417.541 797.81 419.045 797.81 420.752ZM794.002 419.6C793.981 418.256 793.501 417.179 792.562 416.368C791.623 415.557 790.461 415.152 789.074 415.152C787.815 415.152 786.738 415.557 785.842 416.368C784.946 417.157 784.413 418.235 784.242 419.6H794.002ZM800.184 421.168C800.184 419.355 800.547 417.765 801.272 416.4C802.019 415.013 803.043 413.947 804.344 413.2C805.645 412.453 807.139 412.08 808.824 412.08C810.957 412.08 812.717 412.592 814.104 413.616C815.512 414.619 816.461 416.059 816.952 417.936H813.016C812.696 417.061 812.184 416.379 811.48 415.888C810.776 415.397 809.891 415.152 808.824 415.152C807.331 415.152 806.136 415.685 805.24 416.752C804.365 417.797 803.928 419.269 803.928 421.168C803.928 423.067 804.365 424.549 805.24 425.616C806.136 426.683 807.331 427.216 808.824 427.216C810.936 427.216 812.333 426.288 813.016 424.432H816.952C816.44 426.224 815.48 427.653 814.072 428.72C812.664 429.765 810.915 430.288 808.824 430.288C807.139 430.288 805.645 429.915 804.344 429.168C803.043 428.4 802.019 427.333 801.272 425.968C800.547 424.581 800.184 422.981 800.184 421.168ZM828.236 430.288C826.572 430.288 825.068 429.915 823.724 429.168C822.38 428.4 821.324 427.333 820.556 425.968C819.788 424.581 819.404 422.981 819.404 421.168C819.404 419.376 819.798 417.787 820.588 416.4C821.377 415.013 822.454 413.947 823.82 413.2C825.185 412.453 826.71 412.08 828.396 412.08C830.081 412.08 831.606 412.453 832.972 413.2C834.337 413.947 835.414 415.013 836.204 416.4C836.993 417.787 837.388 419.376 837.388 421.168C837.388 422.96 836.982 424.549 836.172 425.936C835.361 427.323 834.252 428.4 832.844 429.168C831.457 429.915 829.921 430.288 828.236 430.288ZM828.236 427.12C829.174 427.12 830.049 426.896 830.86 426.448C831.692 426 832.364 425.328 832.876 424.432C833.388 423.536 833.644 422.448 833.644 421.168C833.644 419.888 833.398 418.811 832.908 417.936C832.417 417.04 831.766 416.368 830.956 415.92C830.145 415.472 829.27 415.248 828.332 415.248C827.393 415.248 826.518 415.472 825.708 415.92C824.918 416.368 824.289 417.04 823.82 417.936C823.35 418.811 823.116 419.888 823.116 421.168C823.116 423.067 823.596 424.539 824.556 425.584C825.537 426.608 826.764 427.12 828.236 427.12ZM862.338 412.08C863.724 412.08 864.962 412.368 866.05 412.944C867.159 413.52 868.023 414.373 868.642 415.504C869.282 416.635 869.602 418 869.602 419.6V430H865.986V420.144C865.986 418.565 865.591 417.36 864.802 416.528C864.012 415.675 862.935 415.248 861.57 415.248C860.204 415.248 859.116 415.675 858.306 416.528C857.516 417.36 857.122 418.565 857.122 420.144V430H853.506V420.144C853.506 418.565 853.111 417.36 852.322 416.528C851.532 415.675 850.455 415.248 849.09 415.248C847.724 415.248 846.636 415.675 845.826 416.528C845.036 417.36 844.642 418.565 844.642 420.144V430H840.994V412.368H844.642V414.384C845.239 413.659 845.996 413.093 846.914 412.688C847.831 412.283 848.812 412.08 849.858 412.08C851.266 412.08 852.524 412.379 853.634 412.976C854.743 413.573 855.596 414.437 856.194 415.568C856.727 414.501 857.559 413.659 858.69 413.04C859.82 412.4 861.036 412.08 862.338 412.08ZM877.892 414.96C878.51 414.149 879.353 413.467 880.42 412.912C881.486 412.357 882.692 412.08 884.036 412.08C885.572 412.08 886.969 412.464 888.228 413.232C889.508 413.979 890.51 415.035 891.236 416.4C891.961 417.765 892.324 419.333 892.324 421.104C892.324 422.875 891.961 424.464 891.236 425.872C890.51 427.259 889.508 428.347 888.228 429.136C886.969 429.904 885.572 430.288 884.036 430.288C882.692 430.288 881.497 430.021 880.452 429.488C879.406 428.933 878.553 428.251 877.892 427.44V438.384H874.244V412.368H877.892V414.96ZM888.612 421.104C888.612 419.888 888.356 418.843 887.844 417.968C887.353 417.072 886.692 416.4 885.86 415.952C885.049 415.483 884.174 415.248 883.236 415.248C882.318 415.248 881.444 415.483 880.612 415.952C879.801 416.421 879.14 417.104 878.628 418C878.137 418.896 877.892 419.952 877.892 421.168C877.892 422.384 878.137 423.451 878.628 424.368C879.14 425.264 879.801 425.947 880.612 426.416C881.444 426.885 882.318 427.12 883.236 427.12C884.174 427.12 885.049 426.885 885.86 426.416C886.692 425.925 887.353 425.221 887.844 424.304C888.356 423.387 888.612 422.32 888.612 421.104ZM912.091 420.752C912.091 421.413 912.049 422.011 911.963 422.544H898.491C898.598 423.952 899.121 425.083 900.059 425.936C900.998 426.789 902.15 427.216 903.515 427.216C905.478 427.216 906.865 426.395 907.675 424.752H911.611C911.078 426.373 910.107 427.707 908.699 428.752C907.313 429.776 905.585 430.288 903.515 430.288C901.83 430.288 900.315 429.915 898.971 429.168C897.649 428.4 896.603 427.333 895.835 425.968C895.089 424.581 894.715 422.981 894.715 421.168C894.715 419.355 895.078 417.765 895.803 416.4C896.55 415.013 897.585 413.947 898.907 413.2C900.251 412.453 901.787 412.08 903.515 412.08C905.179 412.08 906.662 412.443 907.963 413.168C909.265 413.893 910.278 414.917 911.003 416.24C911.729 417.541 912.091 419.045 912.091 420.752ZM908.283 419.6C908.262 418.256 907.782 417.179 906.843 416.368C905.905 415.557 904.742 415.152 903.355 415.152C902.097 415.152 901.019 415.557 900.123 416.368C899.227 417.157 898.694 418.235 898.523 419.6H908.283ZM924.577 412.08C925.964 412.08 927.201 412.368 928.289 412.944C929.399 413.52 930.263 414.373 930.881 415.504C931.5 416.635 931.809 418 931.809 419.6V430H928.193V420.144C928.193 418.565 927.799 417.36 927.009 416.528C926.22 415.675 925.143 415.248 923.777 415.248C922.412 415.248 921.324 415.675 920.513 416.528C919.724 417.36 919.329 418.565 919.329 420.144V430H915.681V412.368H919.329V414.384C919.927 413.659 920.684 413.093 921.601 412.688C922.54 412.283 923.532 412.08 924.577 412.08ZM942.863 430.288C941.476 430.288 940.228 430.043 939.119 429.552C938.031 429.04 937.167 428.357 936.527 427.504C935.887 426.629 935.545 425.659 935.503 424.592H939.279C939.343 425.339 939.695 425.968 940.335 426.48C940.996 426.971 941.817 427.216 942.799 427.216C943.823 427.216 944.612 427.024 945.167 426.64C945.743 426.235 946.031 425.723 946.031 425.104C946.031 424.443 945.711 423.952 945.071 423.632C944.452 423.312 943.46 422.96 942.095 422.576C940.772 422.213 939.695 421.861 938.863 421.52C938.031 421.179 937.305 420.656 936.687 419.952C936.089 419.248 935.791 418.32 935.791 417.168C935.791 416.229 936.068 415.376 936.623 414.608C937.177 413.819 937.967 413.2 938.991 412.752C940.036 412.304 941.231 412.08 942.575 412.08C944.58 412.08 946.191 412.592 947.407 413.616C948.644 414.619 949.305 415.995 949.391 417.744H945.743C945.679 416.955 945.359 416.325 944.783 415.856C944.207 415.387 943.428 415.152 942.447 415.152C941.487 415.152 940.751 415.333 940.239 415.696C939.727 416.059 939.471 416.539 939.471 417.136C939.471 417.605 939.641 418 939.983 418.32C940.324 418.64 940.74 418.896 941.231 419.088C941.721 419.259 942.447 419.483 943.407 419.76C944.687 420.101 945.732 420.453 946.543 420.816C947.375 421.157 948.089 421.669 948.687 422.352C949.284 423.035 949.593 423.941 949.615 425.072C949.615 426.075 949.337 426.971 948.783 427.76C948.228 428.549 947.439 429.168 946.415 429.616C945.412 430.064 944.228 430.288 942.863 430.288ZM952.34 421.104C952.34 419.333 952.703 417.765 953.428 416.4C954.175 415.035 955.178 413.979 956.436 413.232C957.716 412.464 959.124 412.08 960.66 412.08C962.047 412.08 963.252 412.357 964.276 412.912C965.322 413.445 966.154 414.117 966.772 414.928V412.368H970.452V430H966.772V427.376C966.154 428.208 965.311 428.901 964.244 429.456C963.178 430.011 961.962 430.288 960.596 430.288C959.082 430.288 957.695 429.904 956.436 429.136C955.178 428.347 954.175 427.259 953.428 425.872C952.703 424.464 952.34 422.875 952.34 421.104ZM966.772 421.168C966.772 419.952 966.516 418.896 966.004 418C965.514 417.104 964.863 416.421 964.052 415.952C963.242 415.483 962.367 415.248 961.428 415.248C960.49 415.248 959.615 415.483 958.804 415.952C957.994 416.4 957.332 417.072 956.82 417.968C956.33 418.843 956.084 419.888 956.084 421.104C956.084 422.32 956.33 423.387 956.82 424.304C957.332 425.221 957.994 425.925 958.804 426.416C959.636 426.885 960.511 427.12 961.428 427.12C962.367 427.12 963.242 426.885 964.052 426.416C964.863 425.947 965.514 425.264 966.004 424.368C966.516 423.451 966.772 422.384 966.772 421.168ZM974.028 421.104C974.028 419.333 974.39 417.765 975.116 416.4C975.862 415.035 976.865 413.979 978.124 413.232C979.404 412.464 980.822 412.08 982.38 412.08C983.532 412.08 984.662 412.336 985.772 412.848C986.902 413.339 987.798 414 988.46 414.832V406.32H992.14V430H988.46V427.344C987.862 428.197 987.03 428.901 985.964 429.456C984.918 430.011 983.713 430.288 982.348 430.288C980.812 430.288 979.404 429.904 978.124 429.136C976.865 428.347 975.862 427.259 975.116 425.872C974.39 424.464 974.028 422.875 974.028 421.104ZM988.46 421.168C988.46 419.952 988.204 418.896 987.692 418C987.201 417.104 986.55 416.421 985.74 415.952C984.929 415.483 984.054 415.248 983.116 415.248C982.177 415.248 981.302 415.483 980.492 415.952C979.681 416.4 979.02 417.072 978.508 417.968C978.017 418.843 977.772 419.888 977.772 421.104C977.772 422.32 978.017 423.387 978.508 424.304C979.02 425.221 979.681 425.925 980.492 426.416C981.324 426.885 982.198 427.12 983.116 427.12C984.054 427.12 984.929 426.885 985.74 426.416C986.55 425.947 987.201 425.264 987.692 424.368C988.204 423.451 988.46 422.384 988.46 421.168ZM1004.58 430.288C1002.92 430.288 1001.41 429.915 1000.07 429.168C998.723 428.4 997.667 427.333 996.899 425.968C996.131 424.581 995.747 422.981 995.747 421.168C995.747 419.376 996.142 417.787 996.931 416.4C997.721 415.013 998.798 413.947 1000.16 413.2C1001.53 412.453 1003.05 412.08 1004.74 412.08C1006.42 412.08 1007.95 412.453 1009.32 413.2C1010.68 413.947 1011.76 415.013 1012.55 416.4C1013.34 417.787 1013.73 419.376 1013.73 421.168C1013.73 422.96 1013.33 424.549 1012.52 425.936C1011.7 427.323 1010.6 428.4 1009.19 429.168C1007.8 429.915 1006.26 430.288 1004.58 430.288ZM1004.58 427.12C1005.52 427.12 1006.39 426.896 1007.2 426.448C1008.04 426 1008.71 425.328 1009.22 424.432C1009.73 423.536 1009.99 422.448 1009.99 421.168C1009.99 419.888 1009.74 418.811 1009.25 417.936C1008.76 417.04 1008.11 416.368 1007.3 415.92C1006.49 415.472 1005.61 415.248 1004.68 415.248C1003.74 415.248 1002.86 415.472 1002.05 415.92C1001.26 416.368 1000.63 417.04 1000.16 417.936C999.694 418.811 999.459 419.888 999.459 421.168C999.459 423.067 999.939 424.539 1000.9 425.584C1001.88 426.608 1003.11 427.12 1004.58 427.12ZM1023.74 430.288C1022.35 430.288 1021.1 430.043 1019.99 429.552C1018.91 429.04 1018.04 428.357 1017.4 427.504C1016.76 426.629 1016.42 425.659 1016.38 424.592H1020.15C1020.22 425.339 1020.57 425.968 1021.21 426.48C1021.87 426.971 1022.69 427.216 1023.67 427.216C1024.7 427.216 1025.49 427.024 1026.04 426.64C1026.62 426.235 1026.91 425.723 1026.91 425.104C1026.91 424.443 1026.59 423.952 1025.95 423.632C1025.33 423.312 1024.33 422.96 1022.97 422.576C1021.65 422.213 1020.57 421.861 1019.74 421.52C1018.91 421.179 1018.18 420.656 1017.56 419.952C1016.96 419.248 1016.67 418.32 1016.67 417.168C1016.67 416.229 1016.94 415.376 1017.5 414.608C1018.05 413.819 1018.84 413.2 1019.87 412.752C1020.91 412.304 1022.11 412.08 1023.45 412.08C1025.45 412.08 1027.07 412.592 1028.28 413.616C1029.52 414.619 1030.18 415.995 1030.27 417.744H1026.62C1026.55 416.955 1026.23 416.325 1025.66 415.856C1025.08 415.387 1024.3 415.152 1023.32 415.152C1022.36 415.152 1021.63 415.333 1021.11 415.696C1020.6 416.059 1020.35 416.539 1020.35 417.136C1020.35 417.605 1020.52 418 1020.86 418.32C1021.2 418.64 1021.61 418.896 1022.11 419.088C1022.6 419.259 1023.32 419.483 1024.28 419.76C1025.56 420.101 1026.61 420.453 1027.42 420.816C1028.25 421.157 1028.96 421.669 1029.56 422.352C1030.16 423.035 1030.47 423.941 1030.49 425.072C1030.49 426.075 1030.21 426.971 1029.66 427.76C1029.1 428.549 1028.31 429.168 1027.29 429.616C1026.29 430.064 1025.1 430.288 1023.74 430.288Z" fill="#F98368"/>
<path d="M901.104 3.33376e-05C867.733 -0.0495198 835.437 11.7946 810.011 33.407C797.372 44.129 784.411 54.463 770.958 64.146L768.378 66.003C752.897 77.1474 734.496 83.5229 715.439 84.345H715.412C714.953 84.3643 714.494 84.3807 714.035 84.394L713.735 84.402C713.364 84.4113 712.994 84.4183 712.624 84.423C712.436 84.423 712.248 84.429 712.06 84.43C711.779 84.43 711.498 84.43 711.217 84.43C710.936 84.43 710.66 84.43 710.382 84.43C710.192 84.43 710.002 84.43 709.813 84.423C709.444 84.4177 709.074 84.4107 708.705 84.402L708.405 84.394C707.946 84.3807 707.488 84.3643 707.029 84.345H707.001C687.944 83.521 669.543 77.1438 654.063 65.998L651.483 64.141C638.032 54.458 625.068 44.124 612.43 33.402C587.004 11.7895 554.708 -0.0546123 521.337 -0.00497155H520.992H520.647C487.276 -0.0546123 454.98 11.7895 429.554 33.402C416.915 44.124 403.954 54.458 390.501 64.141L387.921 65.998C372.444 77.1417 354.048 83.5188 334.995 84.345H334.959C334.503 84.3643 334.047 84.3804 333.591 84.393L333.285 84.402C332.918 84.411 332.552 84.418 332.185 84.423C331.993 84.423 331.801 84.429 331.609 84.43C331.332 84.43 331.055 84.43 330.778 84.43C330.501 84.43 330.214 84.43 329.932 84.43L329.374 84.423C329.001 84.417 328.627 84.411 328.255 84.401L327.97 84.393C327.508 84.3797 327.046 84.3634 326.584 84.344H326.563C307.504 83.5234 289.101 77.1481 273.618 66.003L271.038 64.146C257.586 54.463 244.624 44.1291 231.985 33.4081C211.479 16.0288 186.43 4.8777 159.793 1.27079C133.156 -2.33613 106.043 1.75163 81.6536 13.0516C57.2641 24.3516 36.6159 42.3923 22.1454 65.0448C7.67486 87.6974 -0.0140381 114.017 -0.0140381 140.897C-0.0140381 167.777 7.67486 194.096 22.1454 216.748C36.6159 239.401 57.2641 257.442 81.6536 268.741C106.043 280.041 133.156 284.129 159.793 280.522C186.43 276.915 211.479 265.764 231.985 248.385C244.624 237.663 257.585 227.329 271.038 217.646L273.618 215.789C289.098 204.645 307.498 198.269 326.554 197.445H326.592C327.048 197.426 327.504 197.41 327.96 197.397L328.26 197.388C328.627 197.379 328.994 197.372 329.36 197.367C329.552 197.367 329.743 197.361 329.935 197.36C330.212 197.36 330.489 197.36 330.766 197.36C331.043 197.36 331.33 197.36 331.612 197.36C331.798 197.36 331.985 197.36 332.171 197.367C332.544 197.372 332.916 197.379 333.287 197.388L333.575 197.396C334.037 197.409 334.499 197.426 334.96 197.445H334.979C354.038 198.268 372.441 204.645 387.923 215.792L390.503 217.649C403.954 227.332 416.917 237.665 429.556 248.387C454.982 270 487.278 281.844 520.649 281.794H520.994H521.339C554.71 281.844 587.006 270 612.432 248.387C625.071 237.665 638.032 227.331 651.485 217.648L654.065 215.791C669.547 204.645 687.95 198.268 707.009 197.445H707.036C707.495 197.425 707.954 197.41 708.413 197.396L708.713 197.387C709.083 197.378 709.453 197.371 709.824 197.366L710.388 197.359C710.668 197.359 710.949 197.359 711.23 197.359C711.511 197.359 711.786 197.359 712.065 197.359C712.255 197.359 712.445 197.359 712.634 197.366C713.003 197.372 713.373 197.378 713.742 197.387L714.042 197.396C714.501 197.409 714.96 197.425 715.419 197.445H715.447C734.504 198.269 752.905 204.646 768.385 215.792L770.965 217.649C784.416 227.332 797.38 237.665 810.018 248.387C827.32 263.053 847.907 273.325 870.029 278.33C892.151 283.336 915.155 282.926 937.085 277.138C959.015 271.349 979.224 260.351 995.994 245.079C1012.76 229.807 1025.6 210.713 1033.41 189.419C1041.22 168.124 1043.77 145.259 1040.85 122.766C1037.93 100.274 1029.62 78.8181 1016.64 60.2232C1003.65 41.6284 986.365 26.4438 966.252 15.9597C946.139 5.47561 923.792 0.00198626 901.111 0.00400062L901.104 3.33376e-05Z" fill="#F87758"/>
<path d="M120.299 141.786C124.026 141.786 127.669 140.681 130.767 138.611C133.866 136.541 136.281 133.598 137.707 130.155C139.134 126.712 139.507 122.924 138.78 119.269C138.053 115.614 136.259 112.256 133.624 109.621C130.989 106.986 127.631 105.191 123.976 104.464C120.321 103.737 116.533 104.11 113.09 105.536C109.647 106.962 106.704 109.377 104.634 112.476C102.563 115.574 101.458 119.217 101.458 122.944C101.457 125.419 101.943 127.869 102.889 130.156C103.836 132.442 105.224 134.52 106.973 136.27C108.723 138.02 110.801 139.408 113.087 140.354C115.374 141.301 117.824 141.787 120.299 141.786V141.786ZM133.219 147.169H131.819C128.235 148.94 124.292 149.861 120.295 149.861C116.298 149.861 112.355 148.94 108.771 147.169H107.371C102.232 147.173 97.3054 149.216 93.6728 152.851C90.0403 156.485 87.9995 161.413 87.999 166.552V171.397C87.9995 173.539 88.8504 175.592 90.3647 177.106C91.8789 178.621 93.9325 179.472 96.074 179.472H144.525C146.667 179.471 148.72 178.62 150.234 177.105C151.748 175.591 152.599 173.537 152.599 171.395V166.552C152.598 161.412 150.557 156.483 146.923 152.848C143.289 149.213 138.36 147.171 133.22 147.169H133.219ZM168.75 141.786C171.944 141.786 175.066 140.839 177.722 139.064C180.378 137.289 182.448 134.767 183.67 131.816C184.892 128.865 185.212 125.617 184.589 122.485C183.965 119.352 182.427 116.474 180.168 114.216C177.91 111.957 175.032 110.419 171.899 109.796C168.767 109.173 165.519 109.493 162.568 110.716C159.617 111.938 157.095 114.008 155.321 116.664C153.546 119.32 152.599 122.442 152.599 125.636C152.6 129.919 154.302 134.027 157.331 137.055C160.359 140.084 164.467 141.785 168.75 141.786V141.786ZM176.825 147.169H176.186C171.391 148.964 166.109 148.964 161.314 147.169H160.675C157.377 147.191 154.144 148.085 151.304 149.76C155.578 154.308 157.966 160.31 157.983 166.552V173.012C157.983 173.382 157.899 173.735 157.883 174.089H187.593C189.734 174.089 191.788 173.238 193.302 171.723C194.817 170.209 195.667 168.156 195.668 166.014C195.67 163.539 195.183 161.088 194.237 158.801C193.291 156.514 191.903 154.436 190.153 152.686C188.403 150.935 186.325 149.547 184.038 148.601C181.751 147.654 179.3 147.168 176.825 147.169V147.169Z" fill="white"/>
<path d="M519 144.602L543.75 119.852H525.187V95.1021H512.812V119.852H494.25L519 144.602ZM541.5 134.477L534.564 141.413L559.709 150.79L519 165.97L478.291 150.79L503.436 141.413L496.5 134.477L469.5 144.602V169.352L519 187.915L568.5 169.352V144.602L541.5 134.477Z" fill="white"/>
<path d="M888.773 132.915C888.901 130.659 889.534 128.461 890.624 126.482C891.714 124.504 893.235 122.794 895.073 121.481C894.709 120.7 894.13 120.039 893.404 119.575C892.678 119.11 891.835 118.862 890.973 118.859H886.767L891.167 115.707C891.414 115.533 891.623 115.312 891.784 115.056C891.944 114.801 892.052 114.516 892.101 114.218C892.151 113.92 892.14 113.616 892.071 113.322C892.001 113.028 891.874 112.751 891.697 112.507L890.364 110.649C890.19 110.402 889.969 110.193 889.713 110.033C889.458 109.872 889.173 109.764 888.875 109.715C888.577 109.666 888.273 109.676 887.979 109.745C887.685 109.815 887.408 109.942 887.164 110.119L882.583 113.403L884.231 109.019C884.337 108.737 884.387 108.436 884.377 108.134C884.366 107.833 884.297 107.536 884.172 107.262C884.046 106.987 883.868 106.74 883.647 106.534C883.426 106.329 883.167 106.169 882.884 106.064L880.735 105.264C880.453 105.158 880.152 105.109 879.851 105.12C879.55 105.13 879.254 105.2 878.979 105.325C878.705 105.45 878.458 105.628 878.253 105.849C878.048 106.069 877.888 106.329 877.783 106.611L874.932 114.203L872.081 106.595C871.976 106.313 871.816 106.053 871.611 105.833C871.406 105.612 871.159 105.434 870.885 105.309C870.61 105.184 870.314 105.114 870.013 105.104C869.712 105.093 869.411 105.142 869.129 105.248L866.98 106.048C866.697 106.153 866.438 106.313 866.218 106.519C865.998 106.725 865.82 106.972 865.696 107.247C865.572 107.522 865.504 107.819 865.496 108.12C865.488 108.422 865.539 108.722 865.648 109.003L867.3 113.386L862.7 110.119C862.455 109.943 862.178 109.818 861.885 109.749C861.591 109.681 861.287 109.671 860.99 109.72C860.693 109.77 860.408 109.877 860.153 110.036C859.897 110.196 859.675 110.404 859.5 110.649L858.169 112.512C857.993 112.757 857.868 113.034 857.799 113.327C857.731 113.621 857.721 113.925 857.77 114.222C857.819 114.519 857.927 114.804 858.086 115.06C858.246 115.315 858.454 115.537 858.699 115.712L863.099 118.864H858.885C858.283 118.863 857.687 118.981 857.131 119.211C856.575 119.441 856.069 119.778 855.643 120.204C855.217 120.629 854.88 121.134 854.649 121.69C854.419 122.246 854.3 122.842 854.3 123.444V173.879C854.299 174.481 854.418 175.078 854.648 175.634C854.878 176.191 855.216 176.697 855.641 177.123C856.067 177.549 856.573 177.886 857.13 178.116C857.686 178.347 858.283 178.465 858.885 178.464H883.085C882.261 177.076 881.821 175.493 881.81 173.879V141.784C881.817 139.741 882.506 137.76 883.767 136.153C885.029 134.546 886.79 133.407 888.773 132.915V132.915ZM886.395 173.879C886.394 174.481 886.513 175.078 886.743 175.634C886.973 176.191 887.311 176.697 887.736 177.123C888.162 177.549 888.668 177.886 889.225 178.116C889.781 178.347 890.378 178.465 890.98 178.464H913.9V160.124H886.395V173.879ZM918.49 178.464H941.414C942.016 178.465 942.613 178.347 943.17 178.117C943.726 177.887 944.232 177.549 944.658 177.123C945.084 176.697 945.422 176.191 945.652 175.635C945.883 175.078 946.001 174.481 946 173.879V160.124H918.489L918.49 178.464ZM941.414 137.203H938.491C938.889 136.109 939.101 134.957 939.121 133.793C939.135 132.432 938.878 131.082 938.364 129.821C937.85 128.561 937.089 127.415 936.128 126.452C935.166 125.489 934.022 124.727 932.762 124.211C931.502 123.696 930.152 123.436 928.791 123.448C921.899 123.448 917.916 130.282 916.197 134.237C914.463 130.279 910.48 123.444 903.6 123.444C902.239 123.432 900.889 123.692 899.629 124.207C898.37 124.723 897.225 125.485 896.263 126.448C895.302 127.411 894.542 128.557 894.028 129.817C893.514 131.078 893.256 132.428 893.27 133.789C893.282 134.954 893.496 136.107 893.9 137.199H890.98C890.378 137.198 889.781 137.317 889.225 137.547C888.668 137.777 888.162 138.115 887.736 138.541C887.311 138.966 886.973 139.472 886.743 140.029C886.513 140.585 886.394 141.182 886.395 141.784V155.539H913.9V137.203H916.1L916.2 137.174L916.3 137.203H918.492V155.543H946V141.784C946 141.182 945.882 140.586 945.651 140.03C945.421 139.474 945.083 138.968 944.657 138.543C944.231 138.117 943.725 137.78 943.169 137.55C942.612 137.32 942.016 137.202 941.414 137.203ZM902.442 137.203C902.073 137.014 901.726 136.783 901.41 136.515C901.012 136.182 900.693 135.766 900.475 135.295C900.257 134.825 900.146 134.312 900.149 133.793C900.134 133.335 900.213 132.879 900.381 132.452C900.549 132.026 900.803 131.638 901.126 131.313C901.449 130.988 901.835 130.732 902.261 130.562C902.686 130.392 903.142 130.31 903.6 130.322C906.279 130.322 908.7 134.248 909.976 137.199L902.442 137.203ZM930.983 136.515C930.667 136.783 930.32 137.014 929.951 137.203H922.415C923.676 134.294 926.115 130.326 928.791 130.326C929.249 130.314 929.705 130.395 930.13 130.565C930.556 130.735 930.942 130.99 931.265 131.315C931.588 131.64 931.842 132.027 932.01 132.453C932.179 132.879 932.258 133.335 932.244 133.793C932.247 134.311 932.135 134.823 931.917 135.293C931.699 135.763 931.38 136.179 930.983 136.511V136.515Z" fill="white"/>
<path d="M141.999 255.602C205.236 255.602 256.499 204.339 256.499 141.102C256.499 77.8654 205.236 26.6021 141.999 26.6021C78.7624 26.6021 27.499 77.8654 27.499 141.102C27.499 204.339 78.7624 255.602 141.999 255.602Z" stroke="white" stroke-width="5"/>
<path d="M520.999 255.602C584.236 255.602 635.499 204.339 635.499 141.102C635.499 77.8654 584.236 26.6021 520.999 26.6021C457.762 26.6021 406.499 77.8654 406.499 141.102C406.499 204.339 457.762 255.602 520.999 255.602Z" stroke="white" stroke-width="5"/>
<path d="M899.999 255.602C963.236 255.602 1014.5 204.339 1014.5 141.102C1014.5 77.8654 963.236 26.6021 899.999 26.6021C836.762 26.6021 785.499 77.8654 785.499 141.102C785.499 204.339 836.762 255.602 899.999 255.602Z" stroke="white" stroke-width="5"/>
</svg>
