<svg width="167" height="168" viewBox="0 0 167 168" fill="none" xmlns="http://www.w3.org/2000/svg">
<g clip-path="url(#clip0)">
<path d="M155.994 58.077C155.686 60.002 155.406 61.931 155.067 63.85C151.129 86.15 132.28 104.272 109.809 107.378C81.2838 111.32 55.5328 93.506 49.2038 65.453C43.5768 40.51 57.5528 13.797 81.2328 4.16699C86.2016 2.08795 91.4571 0.775009 96.8199 0.272995C97.1934 0.21238 97.5613 0.121076 97.9198 0H105.751C106.603 0.129 107.451 0.278996 108.308 0.382996C119.794 1.8415 130.519 6.915 138.932 14.87C147.344 22.825 153.01 33.2494 155.108 44.636C155.445 46.499 155.708 48.376 156.002 50.247L155.994 58.077ZM118.415 63.75C115.545 60.893 112.715 58.037 109.836 55.237C109.042 54.465 108.915 53.893 109.803 53.121C110.662 52.374 111.426 51.521 112.237 50.713C114.312 48.657 116.39 46.604 118.327 44.688L111.37 37.505C108.524 40.405 105.691 43.257 102.91 46.156C102.146 46.956 101.568 47.084 100.794 46.194C100.047 45.334 99.1878 44.572 98.3858 43.76C96.3318 41.683 94.2858 39.603 92.3708 37.668L85.2448 44.562C88.1238 47.428 90.9498 50.285 93.8298 53.085C94.6238 53.858 94.7439 54.428 93.8629 55.203C92.9258 56.028 92.0868 56.963 91.1978 57.842C89.1978 59.819 87.1978 61.791 85.3368 63.623L92.3118 70.823C95.1508 67.923 97.9808 65.07 100.759 62.166C101.528 61.366 102.096 61.266 102.876 62.134C103.817 63.186 104.868 64.139 105.86 65.146C107.721 67.032 109.573 68.925 111.323 70.706L118.415 63.75Z" fill="#004C77"/>
<path d="M55.8519 98.011C55.3169 98.572 54.8809 99.049 54.4249 99.506C49.4249 104.506 44.4078 109.481 39.4518 114.52C38.5078 115.479 37.9219 115.52 36.9749 114.531C34.2359 111.672 31.4018 108.906 28.6838 106.183L22.1439 112.768L38.5599 129.159C38.6679 129.059 39.1598 128.673 39.5978 128.233C47.0998 120.741 54.5925 113.241 62.0759 105.733C62.9469 104.856 63.5579 104.633 64.6599 105.446C73.5246 112.032 83.9827 116.139 94.9598 117.346C96.4858 117.518 96.6899 118.126 96.5179 119.436C93.3909 143.197 76.0759 161.821 52.5419 166.13C35.8629 169.184 20.9139 164.842 8.01886 153.919C-2.28788 145.457 -8.92411 133.338 -10.5021 120.096C-12.8711 101.311 -6.75611 85.486 7.20789 72.785C15.2987 65.4703 25.4508 60.8324 36.2769 59.505C37.7769 59.297 38.4769 59.458 38.6829 61.233C40.1653 74.6401 45.9357 87.2107 55.1359 97.075C55.3519 97.305 55.5269 97.582 55.8519 98.011Z" fill="#004C77"/>
</g>
<defs>
<clipPath id="clip0">
<rect width="167" height="167.087" fill="white"/>
</clipPath>
</defs>
</svg>
