<svg width="74" height="64" viewBox="0 0 74 64" fill="none" xmlns="http://www.w3.org/2000/svg">
<g clip-path="url(#clip0)">
<path d="M51.93 63.602H21.99C21.8914 63.5281 21.783 63.4682 21.668 63.424C20.641 63.1418 19.742 62.5156 19.1213 61.6501C18.5006 60.7846 18.1959 59.7322 18.258 58.669C18.3 57.346 18.266 56.02 18.267 54.695C18.273 38.1343 18.278 21.5737 18.282 5.013C18.2421 4.01534 18.4725 3.02544 18.949 2.14799C19.6016 1.12878 20.5894 0.369155 21.742 0H52.3039C53.1017 0.420353 53.8604 0.910964 54.571 1.466C55.0273 1.94866 55.3743 2.52398 55.5882 3.1528C55.8022 3.78162 55.8782 4.44918 55.811 5.11C55.799 22.0153 55.799 38.9207 55.811 55.826C55.811 56.985 55.831 58.145 55.781 59.301C55.7697 59.9678 55.596 60.6218 55.2748 61.2062C54.9537 61.7907 54.4948 62.288 53.938 62.655C53.2951 63.024 52.6236 63.3407 51.93 63.602ZM49.694 29.017H49.707C49.707 21.647 49.707 14.2767 49.707 6.90601C49.707 5.99401 49.707 5.993 48.784 5.993C40.9173 5.993 33.0506 5.993 25.1839 5.993C24.5909 5.993 24.357 6.132 24.358 6.787C24.3813 21.587 24.3919 36.3897 24.3899 51.195C24.3899 52.008 24.422 52.038 25.226 52.038C33.0673 52.042 40.9087 52.045 48.75 52.047C49.691 52.047 49.694 52.047 49.694 51.066C49.6946 43.7167 49.6946 36.367 49.694 29.017ZM37.104 56.348C36.423 56.348 35.741 56.331 35.06 56.348C34.842 56.3288 34.6223 56.3545 34.4147 56.4236C34.207 56.4926 34.0157 56.6036 33.8526 56.7495C33.6895 56.8954 33.5581 57.0733 33.4665 57.272C33.3749 57.4708 33.325 57.6862 33.32 57.905C33.3186 58.1192 33.3617 58.3313 33.4466 58.5279C33.5315 58.7245 33.6564 58.9014 33.8132 59.0473C33.97 59.1932 34.1553 59.305 34.3575 59.3755C34.5598 59.446 34.7744 59.4737 34.988 59.457C36.352 59.4963 37.7166 59.4963 39.082 59.457C39.2956 59.4733 39.5103 59.4452 39.7125 59.3745C39.9147 59.3039 40.1002 59.1922 40.2572 59.0464C40.4142 58.9007 40.5394 58.7241 40.6249 58.5276C40.7104 58.3312 40.7543 58.1192 40.754 57.905C40.752 57.6915 40.7067 57.4805 40.6207 57.285C40.5347 57.0896 40.4099 56.9136 40.2538 56.7679C40.0977 56.6221 39.9136 56.5097 39.7126 56.4373C39.5117 56.365 39.2981 56.3342 39.0849 56.347C38.4259 56.327 37.765 56.347 37.104 56.347V56.348Z" fill="#004C77"/>
<path d="M0 31.5529C0.162 29.8529 0.219 28.128 0.513 26.448C0.850001 24.519 1.366 22.618 1.867 20.722C1.90824 20.5225 1.99047 20.3337 2.10852 20.1677C2.22657 20.0017 2.37785 19.862 2.55273 19.7575C2.72762 19.6531 2.92231 19.5861 3.12445 19.5609C3.32659 19.5356 3.53179 19.5527 3.72699 19.611C3.92884 19.6635 4.1175 19.7576 4.28094 19.8871C4.44439 20.0167 4.57906 20.179 4.67627 20.3635C4.77348 20.548 4.8311 20.7508 4.84552 20.9589C4.85994 21.167 4.83084 21.3758 4.76001 21.572C4.40901 23.018 3.97399 24.446 3.68799 25.904C2.88974 29.935 2.92375 34.0866 3.78796 38.104C4.07196 39.437 4.47196 40.745 4.78796 42.072C4.8804 42.3825 4.86627 42.7151 4.74774 43.0167C4.62922 43.3182 4.41313 43.5714 4.13397 43.736C3.8771 43.9169 3.56626 44.0048 3.25269 43.9854C2.93911 43.9659 2.64154 43.8402 2.409 43.629C2.13204 43.3546 1.92607 43.0168 1.80896 42.645C0.771569 39.4752 0.199001 36.1719 0.109009 32.838C0.0890565 32.5325 0.0526617 32.2285 0 31.927V31.5529Z" fill="#004C77"/>
<path d="M73.973 32.8451C73.8777 36.1951 73.2946 39.5133 72.242 42.6951C72.2012 42.9047 72.117 43.1034 71.9948 43.2786C71.8727 43.4538 71.7153 43.6015 71.5328 43.7123C71.3502 43.8232 71.1465 43.8946 70.9348 43.9221C70.723 43.9496 70.5078 43.9326 70.303 43.8721C70.0968 43.8149 69.9055 43.7136 69.7423 43.5752C69.5791 43.4368 69.448 43.2645 69.358 43.0703C69.268 42.8762 69.2213 42.6648 69.2211 42.4508C69.221 42.2368 69.2673 42.0253 69.357 41.8311C70.1484 39.3459 70.659 36.7799 70.879 34.1811C71.1723 30.4182 70.7879 26.6332 69.744 23.0061C69.596 22.4891 69.444 21.9741 69.32 21.4501C69.2133 21.0879 69.2506 20.6985 69.4241 20.3631C69.5975 20.0278 69.8938 19.7723 70.251 19.6501C70.4331 19.5869 70.6258 19.5604 70.8181 19.572C71.0104 19.5836 71.1986 19.6331 71.3717 19.7177C71.5448 19.8022 71.6995 19.9202 71.8269 20.0648C71.9543 20.2094 72.0519 20.3777 72.114 20.5601C72.491 21.6751 72.814 22.8121 73.086 23.9601C73.7398 26.875 74.0376 29.8584 73.973 32.8451Z" fill="#004C77"/>
<path d="M67.819 31.825C67.8012 34.8481 67.3231 37.8509 66.401 40.73C66.34 41.0587 66.1733 41.3586 65.9264 41.584C65.6795 41.8094 65.3659 41.9481 65.033 41.979C64.7339 42.0374 64.4238 41.9882 64.1574 41.8402C63.891 41.6922 63.6854 41.4548 63.577 41.17C63.4567 40.6994 63.4495 40.207 63.556 39.733C63.885 38.011 64.378 36.315 64.612 34.582C65.0568 31.0412 64.7237 27.4459 63.636 24.047C63.5595 23.8111 63.4981 23.5707 63.452 23.327C63.37 22.9599 63.4303 22.5754 63.6207 22.251C63.8111 21.9266 64.1175 21.6864 64.478 21.579C64.8508 21.4715 65.251 21.5145 65.5925 21.6986C65.9341 21.8828 66.1899 22.1935 66.305 22.564C66.5718 23.3248 66.7991 24.0988 66.986 24.883C67.5387 27.1557 67.8183 29.4861 67.819 31.825Z" fill="#004C77"/>
<path d="M6.17999 31.7041C6.24187 28.6581 6.74717 25.6373 7.67999 22.737C7.74885 22.3762 7.94686 22.0527 8.23694 21.8273C8.52701 21.6018 8.88926 21.4898 9.25598 21.5121C9.58057 21.5098 9.89554 21.6224 10.1451 21.8299C10.3947 22.0375 10.5629 22.3265 10.62 22.646C10.6667 23.075 10.6213 23.509 10.487 23.9191C9.54073 26.946 9.14812 30.1188 9.328 33.285C9.46496 35.4942 9.87681 37.6778 10.554 39.785C10.6832 40.0812 10.7223 40.4088 10.6667 40.7271C10.611 41.0454 10.463 41.3403 10.241 41.5751C10.0575 41.7672 9.8256 41.9063 9.5697 41.9776C9.3138 42.049 9.04343 42.0501 8.78699 41.9807C8.53055 41.9113 8.29757 41.774 8.11261 41.5833C7.92765 41.3926 7.79755 41.1555 7.73602 40.897C7.25302 39.062 6.826 37.208 6.492 35.341C6.281 34.149 6.27799 32.9171 6.17999 31.7041Z" fill="#004C77"/>
<path d="M37.034 11.445C36.373 11.445 35.711 11.459 35.05 11.445C34.8429 11.469 34.633 11.4495 34.4338 11.3878C34.2347 11.3261 34.0506 11.2236 33.8932 11.0868C33.7359 10.95 33.6088 10.7819 33.5201 10.5932C33.4314 10.4045 33.383 10.1994 33.378 9.99099C33.3749 9.7828 33.4152 9.57625 33.4963 9.38449C33.5774 9.19272 33.6976 9.01995 33.8491 8.87716C34.0006 8.73437 34.1803 8.62469 34.3765 8.55511C34.5727 8.48552 34.7813 8.45756 34.9889 8.47299C36.3523 8.44032 37.7163 8.44032 39.081 8.47299C39.2885 8.46123 39.4963 8.4916 39.6918 8.56225C39.8873 8.6329 40.0666 8.74239 40.2187 8.88412C40.3708 9.02585 40.4926 9.19688 40.5769 9.38693C40.6611 9.57698 40.7061 9.78211 40.709 9.98998C40.7006 10.1933 40.6513 10.3928 40.5641 10.5766C40.4769 10.7604 40.3535 10.9247 40.2013 11.0598C40.0492 11.1948 39.8714 11.2979 39.6786 11.3627C39.4857 11.4275 39.2818 11.4527 39.079 11.437C38.398 11.461 37.7149 11.437 37.0329 11.437L37.034 11.445Z" fill="#004C77"/>
<path d="M48.316 8.85687C48.3181 9.0477 48.2825 9.23705 48.2112 9.41406C48.1399 9.59107 48.0342 9.75225 47.9004 9.88831C47.7666 10.0244 47.6072 10.1326 47.4314 10.2068C47.2556 10.2811 47.0668 10.3198 46.876 10.3209C46.68 10.325 46.4851 10.2899 46.3029 10.2175C46.1207 10.1452 45.9548 10.0371 45.815 9.89963C45.6752 9.76217 45.5644 9.59812 45.489 9.41714C45.4136 9.23617 45.3751 9.04194 45.376 8.84589C45.3879 8.46054 45.5486 8.09477 45.8244 7.82535C46.1001 7.55593 46.4695 7.4038 46.855 7.40088C47.2399 7.40653 47.6074 7.56158 47.8801 7.83328C48.1527 8.10498 48.309 8.47203 48.316 8.85687Z" fill="#004C77"/>
</g>
<defs>
<clipPath id="clip0">
<rect width="73.973" height="63.602" fill="white"/>
</clipPath>
</defs>
</svg>
